<?xml version="1.0" encoding="utf-8"?>
<!-- Generator: Adobe Illustrator 24.1.3, SVG Export Plug-In . SVG Version: 6.00 Build 0)  -->
<svg version="1.1" id="Layer_1" xmlns="http://www.w3.org/2000/svg" xmlns:xlink="http://www.w3.org/1999/xlink" x="0px" y="0px"
	 viewBox="0 0 1920 498" style="enable-background:new 0 0 1920 498;" xml:space="preserve">
<style type="text/css">
	.st0{fill:#FFFFFF;}
	.st1{font-family:'PTSans-Bold';}
	.st2{font-size:356.3598px;}
</style>
<g>
	<text transform="matrix(1 0 0 1 559.8398 318.6113)" class="st0 st1 st2">La Unión</text>
	<g>
		<g>
			<g>
				<path class="st0" d="M760.93,402.22v34.05h-5.11v-19.71l0.41-9.39h-0.05l-10.37,29.1h-4.59l-10.37-29.1h-0.05l0.41,9.39v19.71
					h-5.11v-34.05h8.2l6.86,19.71l2.37,8.1h0.1l2.42-8.1l6.81-19.71H760.93z"/>
				<path class="st0" d="M813.65,402.22v21c0,4.51-1.19,7.89-3.56,10.16c-2.37,2.27-5.83,3.41-10.37,3.41
					c-4.47,0-7.9-1.14-10.29-3.41c-2.39-2.27-3.59-5.66-3.59-10.16v-21h5.52v20.33c0,3.2,0.69,5.57,2.06,7.12
					c1.38,1.55,3.47,2.32,6.29,2.32c2.85,0,4.97-0.77,6.35-2.32c1.38-1.55,2.06-3.92,2.06-7.12v-20.33H813.65z"/>
				<path class="st0" d="M866.48,402.22v34.05h-6.55l-13.16-21.46l-3.3-6.04h-0.05l0.21,5.52v21.98h-5.06v-34.05h6.5l13.1,21.41
					l3.35,6.14h0.05l-0.21-5.57v-21.98H866.48z"/>
				<path class="st0" d="M897.54,402.22v34.05h-5.52v-34.05H897.54z"/>
				<path class="st0" d="M951.35,427.24c-0.69,2.06-1.72,3.81-3.1,5.24c-1.38,1.43-2.99,2.5-4.85,3.22
					c-1.86,0.72-3.9,1.08-6.14,1.08c-3.27,0-6.11-0.7-8.51-2.12c-2.41-1.41-4.27-3.42-5.57-6.04c-1.31-2.61-1.96-5.74-1.96-9.39
					c0-3.65,0.65-6.78,1.96-9.39c1.31-2.61,3.16-4.63,5.57-6.04c2.41-1.41,5.23-2.12,8.46-2.12c2.24,0,4.26,0.31,6.06,0.93
					c1.81,0.62,3.34,1.55,4.62,2.79c1.27,1.24,2.25,2.79,2.94,4.64l-5.21,2.32c-0.69-2.03-1.69-3.52-2.99-4.46
					c-1.31-0.95-3.01-1.42-5.11-1.42c-2.1,0-3.94,0.5-5.52,1.5c-1.58,1-2.81,2.44-3.69,4.33c-0.88,1.89-1.32,4.2-1.32,6.91
					c0,2.68,0.41,4.98,1.24,6.89c0.83,1.91,2.01,3.36,3.56,4.36c1.55,1,3.4,1.5,5.57,1.5c2.1,0,3.91-0.54,5.44-1.63
					c1.53-1.08,2.62-2.71,3.28-4.88L951.35,427.24z"/>
				<path class="st0" d="M979.42,402.22v34.05h-5.52v-34.05H979.42z"/>
				<path class="st0" d="M1018.11,402.22c2.44,0,4.55,0.43,6.32,1.29c1.77,0.86,3.16,2.08,4.15,3.66c1,1.58,1.5,3.49,1.5,5.73
					c0,2.2-0.5,4.1-1.5,5.7c-1,1.6-2.38,2.83-4.15,3.69c-1.77,0.86-3.88,1.29-6.32,1.29h-7.58v12.69h-5.52v-34.05H1018.11z
					 M1017.23,418.83c2.44,0,4.24-0.51,5.39-1.52c1.15-1.01,1.73-2.48,1.73-4.41c0-1.96-0.58-3.45-1.73-4.46
					c-1.15-1.01-2.95-1.52-5.39-1.52h-6.71v11.92H1017.23z"/>
				<path class="st0" d="M1081.1,436.27h-5.83l-3.25-8.93h-14.29l-3.25,8.93h-5.67l12.85-34.05h6.6L1081.1,436.27z M1059.28,422.86
					h11.2l-5.57-15.89L1059.28,422.86z"/>
				<path class="st0" d="M1108.14,431.52h18.78v4.75h-24.3v-34.05h5.52V431.52z"/>
				<path class="st0" d="M1154.52,402.22v34.05H1149v-34.05H1154.52z"/>
				<path class="st0" d="M1192.13,402.22c5.33,0,9.48,1.47,12.46,4.41c2.97,2.94,4.46,7.15,4.46,12.61s-1.49,9.67-4.46,12.61
					c-2.98,2.94-7.13,4.41-12.46,4.41h-12.02v-34.05H1192.13z M1192.13,431.58c3.61,0,6.37-1.07,8.28-3.22
					c1.91-2.15,2.86-5.19,2.86-9.11s-0.95-6.96-2.86-9.11c-1.91-2.15-4.67-3.22-8.28-3.22h-6.5v24.66H1192.13z"/>
				<path class="st0" d="M1261,436.27h-5.83l-3.25-8.93h-14.29l-3.25,8.93h-5.67l12.85-34.05h6.6L1261,436.27z M1239.18,422.86h11.2
					l-5.57-15.89L1239.18,422.86z"/>
				<path class="st0" d="M1294.54,402.22c5.33,0,9.48,1.47,12.46,4.41c2.97,2.94,4.46,7.15,4.46,12.61s-1.49,9.67-4.46,12.61
					c-2.98,2.94-7.13,4.41-12.46,4.41h-12.02v-34.05H1294.54z M1294.54,431.58c3.61,0,6.37-1.07,8.28-3.22
					c1.91-2.15,2.86-5.19,2.86-9.11s-0.95-6.96-2.86-9.11c-1.91-2.15-4.67-3.22-8.28-3.22h-6.5v24.66H1294.54z"/>
				<path class="st0" d="M1379.41,402.22c5.33,0,9.48,1.47,12.46,4.41c2.97,2.94,4.46,7.15,4.46,12.61s-1.49,9.67-4.46,12.61
					c-2.98,2.94-7.13,4.41-12.46,4.41h-12.02v-34.05H1379.41z M1379.41,431.58c3.61,0,6.37-1.07,8.28-3.22
					c1.91-2.15,2.86-5.19,2.86-9.11s-0.95-6.96-2.86-9.11c-1.91-2.15-4.67-3.22-8.28-3.22h-6.5v24.66H1379.41z"/>
				<path class="st0" d="M1425.53,402.22v34.05h-5.52v-34.05H1425.53z"/>
				<path class="st0" d="M1462.73,401.71c3.06,0,5.71,0.58,7.95,1.73c2.24,1.15,4.13,2.85,5.67,5.08l-3.71,3.56
					c-1.31-1.99-2.78-3.43-4.41-4.31c-1.63-0.88-3.57-1.32-5.8-1.32c-1.65,0-3.01,0.22-4.08,0.67c-1.07,0.45-1.85,1.04-2.35,1.78
					c-0.5,0.74-0.75,1.57-0.75,2.5c0,1.07,0.37,2,1.11,2.79c0.74,0.79,2.12,1.41,4.15,1.86l6.91,1.55c3.3,0.72,5.64,1.82,7.02,3.3
					c1.38,1.48,2.06,3.35,2.06,5.62c0,2.1-0.57,3.92-1.7,5.47c-1.13,1.55-2.71,2.73-4.72,3.56c-2.01,0.83-4.38,1.24-7.09,1.24
					c-2.41,0-4.57-0.31-6.5-0.93c-1.93-0.62-3.61-1.46-5.06-2.53c-1.44-1.07-2.63-2.29-3.56-3.66l3.82-3.82
					c0.72,1.2,1.63,2.28,2.73,3.22c1.1,0.95,2.38,1.68,3.84,2.19s3.09,0.77,4.88,0.77c1.58,0,2.95-0.19,4.1-0.57
					c1.15-0.38,2.03-0.94,2.63-1.68c0.6-0.74,0.9-1.63,0.9-2.66c0-1-0.34-1.87-1.01-2.63c-0.67-0.76-1.92-1.34-3.74-1.75l-7.48-1.7
					c-2.06-0.45-3.77-1.08-5.11-1.91c-1.34-0.83-2.34-1.83-2.99-3.02c-0.65-1.19-0.98-2.52-0.98-4c0-1.93,0.52-3.67,1.57-5.24
					c1.05-1.56,2.57-2.82,4.57-3.77C1457.6,402.18,1459.97,401.71,1462.73,401.71z"/>
				<path class="st0" d="M1525.05,402.22v4.75h-11.66v29.3h-5.52v-29.3h-11.66v-4.75H1525.05z"/>
				<path class="st0" d="M1561.01,402.22c3.64,0,6.54,0.91,8.69,2.73c2.15,1.82,3.22,4.28,3.22,7.38c0,3.2-1.08,5.67-3.22,7.4
					c-2.15,1.74-5.05,2.61-8.69,2.61l-0.52,0.31h-7.89v13.62h-5.47v-34.05H1561.01z M1560.6,418.06c2.24,0,3.9-0.46,4.98-1.37
					c1.08-0.91,1.63-2.31,1.63-4.2c0-1.86-0.54-3.25-1.63-4.18c-1.08-0.93-2.74-1.39-4.98-1.39h-8v11.14H1560.6z M1563.85,419.19
					l11.09,17.08h-6.35l-9.49-14.91L1563.85,419.19z"/>
				<path class="st0" d="M1602.8,402.22v34.05h-5.52v-34.05H1602.8z"/>
				<path class="st0" d="M1653.72,402.22v4.75h-11.66v29.3h-5.52v-29.3h-11.66v-4.75H1653.72z"/>
				<path class="st0" d="M1704.07,436.27h-5.83l-3.25-8.93h-14.29l-3.25,8.93h-5.67l12.85-34.05h6.6L1704.07,436.27z
					 M1682.25,422.86h11.2l-5.57-15.89L1682.25,422.86z"/>
				<path class="st0" d="M1731.11,431.52h18.78v4.75h-24.3v-34.05h5.52V431.52z"/>
			</g>
		</g>
		<g>
			<line class="st0" x1="580.54" y1="423.55" x2="625.24" y2="423.55"/>
			<rect x="580.54" y="422.15" class="st0" width="44.71" height="2.81"/>
		</g>
		<g>
			<line class="st0" x1="1846.05" y1="423.55" x2="1890.76" y2="423.55"/>
			<rect x="1846.05" y="422.15" class="st0" width="44.71" height="2.81"/>
		</g>
	</g>
	<g>
		<g>
			<g>
				<path class="st0" d="M257.75,70.81c-9.61-13.71-20.01-21.17-30.87-22.12c-10.57-0.93-18.74,4.72-21.73,7.16
					c3.28,2.2,10.46,7.61,10.5,12.65l-0.24,0c1.94,3.74,1.18,11.8,0.91,14.14c1.65,1,3.45,2.05,5.41,3.15
					c10.72,6.04,8.08,20.27,7.66,22.25c6.77-2.44,14.75-4.49,20.77-3.57C266.35,84.91,258.11,71.38,257.75,70.81z M238.55,63.02
					c-0.32,0.13-0.85,0.11-1.61-0.18c-0.55-0.21-1.17-0.23-1.7-0.09c-0.54,0.14-1,0.43-1.26,0.85c-0.28,0.46-0.61,0.82-1.03,1.03
					c-0.42,0.21-0.94,0.26-1.61,0.22c-1.35-0.08-3.33-0.66-6.46-1.79l-4.71-1.7l3.72-1.7c2.3-1.05,4.46-1.58,6.5-1.61
					c1.02-0.02,2,0.08,2.96,0.31c0.96,0.23,1.91,0.59,2.83,1.08c0.79,0.42,1.43,0.9,1.88,1.39c0.46,0.49,0.72,1,0.81,1.39
					C238.96,62.61,238.87,62.89,238.55,63.02z"/>
			</g>
			<g>
				<g>
					<path class="st0" d="M75.01,271.21c-2.39,0.58-5.6,0.74-8.39-1.22c-1.57,0.63-4.66,1.58-7.4,0.88
						c-1.66,10.31-9.51,53.89-27.57,79.86l-10.31,34.74l16.99-24.25l0,0C47.49,348.48,69.69,286.32,75.01,271.21z"/>
					<path class="st0" d="M55.85,270.88c-1.86,0.47-4.33,0.78-6.48,0c-2.11,6.29-5.76,15.71-10.81,32.79
						c-6.49,22.08-7.88,29.05-17.29,51.34l8.44-7.33C46.3,322.92,54.04,281.71,55.85,270.88z"/>
					<path class="st0" d="M45.14,271.6c-2.73-0.11-5.47-0.39-7.42-0.83c0.26,1.21,1.38,3.02,0.86,8.83
						c-0.17,1.95-1.64,7.61-2.45,10.75c-0.81,3.14-2.26,6.2-2.55,7.83C39.8,292.8,43.87,280.06,45.14,271.6z"/>
					<path class="st0" d="M121.58,272.21c-0.13,0.01-0.39,0.02-0.74,0.02c-1.58,0-5.02-0.29-7.3-2.61c-1.3,0.53-2.93,0.97-4.63,1.08
						c-1.94,8.5-12.88,55.13-24.4,76.44l3.35,11.86c4.14-4.04,13.11-16.65,16.49-27.61c6.38-11.88,18.1-51.08,20.47-59.38
						C123.37,272.38,123.52,272.22,121.58,272.21z"/>
					<path class="st0" d="M78.68,270.77c-4.17,11.9-27.1,76.75-37.24,91.76l2.99,13.96l17.11-30.45
						c13.86-24.69,21.64-64.73,23.52-75.26C83.14,271.41,80.91,271.6,78.68,270.77z"/>
					<path class="st0" d="M102.36,268.68c-1.42,1.16-3.84,2.71-6.87,2.88c-2.38,0.13-4.67-0.61-6.82-2.18
						c-1.02,6.03-8.93,50.7-24.01,77.88l1.8,20.26c4.19-4.55,10.28-13.5,12.53-20.71l3.54-7.57c10.42-21.53,19.53-60.52,21.58-69.4
						C102.95,269.54,103.33,269.55,102.36,268.68z"/>
					<path class="st0" d="M112.73,266.36l13.19-31.82l-6.65-2.76c-2.59,4.32-11.48,19.76-14.99,34.12
						C106.83,268.64,111.24,267.02,112.73,266.36z"/>
					<path class="st0" d="M112.66,340.53c5.38-4.81,15.8-14.79,16.97-19.14l0.51,0.14v-50.02c-1.57,5.55-14.71,51.54-21.63,62.76
						L112.66,340.53z"/>
					<path class="st0" d="M115.93,267.31c1.86,1.87,5.4,1.59,5.44,1.59l0.16-0.01c0.07,0,0.14,0,0.21,0c5.54,0,7.16-1.72,7.24-2.64
						l1.16,0.03v-30.01l-1.16-0.48L115.93,267.31z"/>
					<path class="st0" d="M151.54,111.92c-8.9-7.63-32.54-27.88-56.52-0.84c-21.75,24.52-35.46,53.04-35.78,74.41
						c-0.08,5.26,0.49,10.11,1.77,15c0.51,1.95,1.14,3.91,1.89,5.91l1.03-2.19l35.65-75.59c0.24-0.5,1-0.18,0.8,0.34
						c-8.25,21.07-25.16,63.75-29.02,69.84c-3.73,5.88-6.65,8.39-6.65,8.39c-0.31,0.66,0.04,1.44,0.74,1.65l2.51,0.73
						c0,0,3.28-1.23,6.73-8.01c10.54-20.76,38.05-74.17,38.05-74.17l-39.52,84.69c1.34,0.83,4.2,1.7,8.33,2.52l40.62-84.09
						L85.6,216.24c1.25,0.62,2.59,1.08,5.14,1.73l38.53-84.39l-33.3,86.37c1.68,0.71,4.2,1.42,7.65,2.25l26.52-66.83
						c0,0.04-0.01,0.07-0.01,0.11c0-0.04,0-0.07,0.01-0.11c0,0,0,0,0,0c0.02-1.36,0.49-2.61,1.26-3.63c0,0,0,0,0,0
						c0.11-0.14,0.23-0.28,0.35-0.42c0,0,0,0,0,0c0,0,0,0,0,0c0,0,0,0,0,0l4.97-12.52c0.3-0.74,1.41-0.42,1.27,0.36l-1.87,10.14
						c0.07,0,0.13-0.01,0.2-0.01h9.17l1.56-4.37c0.33-0.91,1.67-0.72,1.73,0.25l0.24,4.12h19.78h4.06h7.79l-1.15-2.07l-1.22-2.17
						C178.14,144.84,164.74,123.24,151.54,111.92z"/>
					<path class="st0" d="M110.04,228.07c-0.28,0.41-0.64,0.95-1.05,1.57c-4.49,6.78-16.1,25.06-18.74,36.78
						c1.65,1.31,3.35,1.92,5.06,1.83c2.75-0.15,4.94-2.07,5.66-2.77c3.49-14.62,12.17-29.93,15.19-34.97l-2.16-0.86L110.04,228.07z"
						/>
					<path class="st0" d="M98.5,224.31c-0.57,1.14-1.48,3-2.62,5.34c-4.95,10.17-14.04,29.42-16.23,37.93
						c3.13,1.32,6.21-0.65,7.28-1.46c2.42-11.44,12.83-28.41,18.09-36.47c0.74-1.13,1.38-2.09,1.88-2.83l-2.74-1.09
						C102.53,225.36,100.48,224.87,98.5,224.31z"/>
					<path class="st0" d="M47.97,262.1c2.48-9.74,8.05-22.36,12.95-32.45c3.72-7.66,7.04-13.87,8.34-16.25l-6-1.75l-0.05-0.01
						c0,0,0,0.01-0.01,0.01c-1.45,2.66-3.07,1.72-6.14,10.56c-2.34,6.73-2.07,9.42-10.47,27.41c-1.79,3.83-0.42,2.8-3.04,8.45
						c-1.82,3.93-3.48,5.26-4.18,8.72c0.42,0.11,1.02,0.19,1.74,0.24C44.28,267.25,47.19,265.18,47.97,262.1z"/>
					<path class="st0" d="M64.63,229.65c-5.86,11.96-12.99,28.03-14.41,37.99c1.76,0.83,4.63,0.16,6.25-0.41
						c1.87-8.84,10.76-25.61,17.56-37.58c2.89-5.09,5.41-9.32,6.84-11.69c-4.5-0.93-7.2-1.89-8.81-2.76
						C70.81,217.49,67.92,222.92,64.63,229.65z"/>
					<path class="st0" d="M77.86,229.65c-6.73,11.76-16.12,29.16-18.09,37.94c1.7,0.58,4.21-0.12,5.65-0.68
						c1.77-7.63,12.1-25.71,19.01-37.25c2.19-3.66,4.04-6.67,5.16-8.47c-1.86-0.52-3.99-1.22-5.56-2.04
						C82.83,221.12,80.56,224.93,77.86,229.65z"/>
					<path class="st0" d="M88.28,229.65c-7.91,13.12-17.87,30.74-19.57,37.74c2.69,1.71,6.19,0.51,7.6-0.1
						c1.99-8.32,10.67-26.89,15.88-37.64c1.31-2.7,2.4-4.92,3.11-6.34c-0.96-0.34-1.81-0.69-2.49-1.04
						C91.44,224.44,89.9,226.95,88.28,229.65z"/>
					<path class="st0" d="M136.12,149.31c-0.43,0.01-0.85,0.07-1.26,0.17C135.27,149.38,135.69,149.32,136.12,149.31z"/>
					<path class="st0" d="M113.85,213.31c-1.13,4.01-5.34,9.83-5.34,9.83l7.41,2.83l20.4-59.21l-4.92-2.26
						C131.4,164.5,117.38,200.8,113.85,213.31z"/>
					<polygon class="st0" points="119.94,227.11 125.92,229.56 136.22,199 131.75,196.37 					"/>
				</g>
				<g>
					<path class="st0" d="M393.55,271.21c2.39,0.58,5.6,0.74,8.39-1.22c1.57,0.63,4.66,1.58,7.4,0.88
						c1.65,10.31,9.51,53.89,27.57,79.86l10.31,34.74l-16.99-24.25l0,0C421.08,348.48,398.88,286.32,393.55,271.21z"/>
					<path class="st0" d="M412.71,270.88c1.86,0.47,4.33,0.78,6.48,0c2.11,6.29,5.76,15.71,10.81,32.79
						c6.49,22.08,7.88,29.05,17.29,51.34l-8.44-7.33C422.27,322.92,414.52,281.71,412.71,270.88z"/>
					<path class="st0" d="M423.42,271.6c2.73-0.11,5.47-0.39,7.42-0.83c-0.26,1.21-1.38,3.02-0.86,8.83
						c0.17,1.95,1.64,7.61,2.45,10.75c0.81,3.14,2.26,6.2,2.55,7.83C428.76,292.8,424.69,280.06,423.42,271.6z"/>
					<path class="st0" d="M346.99,272.21c0.13,0.01,0.39,0.02,0.74,0.02c1.58,0,5.02-0.29,7.3-2.61c1.3,0.53,2.93,0.97,4.63,1.08
						c1.94,8.5,12.88,55.13,24.4,76.44l-3.35,11.86c-4.14-4.04-13.11-16.65-16.49-27.61c-6.38-11.88-18.1-51.08-20.47-59.38
						C345.19,272.38,345.04,272.22,346.99,272.21z"/>
					<path class="st0" d="M389.88,270.77c4.17,11.9,27.1,76.75,37.24,91.76l-2.99,13.96l-17.11-30.45
						c-13.86-24.69-21.64-64.73-23.52-75.26C385.42,271.41,387.66,271.6,389.88,270.77z"/>
					<path class="st0" d="M366.2,268.68c1.42,1.16,3.84,2.71,6.87,2.88c2.38,0.13,4.67-0.61,6.82-2.18
						c1.02,6.03,8.93,50.7,24.01,77.88l-1.8,20.26c-4.19-4.55-10.28-13.5-12.53-20.71l-3.54-7.57
						c-10.42-21.53-19.53-60.52-21.58-69.4C365.62,269.54,365.24,269.55,366.2,268.68z"/>
					<path class="st0" d="M355.83,266.36l-13.19-31.82l6.65-2.76c2.59,4.32,11.48,19.76,14.99,34.12
						C361.74,268.64,357.33,267.02,355.83,266.36z"/>
					<path class="st0" d="M355.91,340.53c-5.38-4.81-15.8-14.79-16.97-19.14l-0.51,0.14v-50.02c1.57,5.55,14.71,51.54,21.63,62.76
						L355.91,340.53z"/>
					<path class="st0" d="M352.64,267.31c-1.86,1.87-5.4,1.59-5.44,1.59l-0.16-0.01c-0.07,0-0.14,0-0.21,0
						c-5.54,0-7.16-1.72-7.24-2.64l-1.16,0.03v-30.01l1.16-0.48L352.64,267.31z"/>
					<path class="st0" d="M317.03,111.92c8.9-7.63,32.54-27.88,56.52-0.84c21.75,24.52,35.46,53.04,35.78,74.41
						c0.08,5.26-0.49,10.11-1.77,15c-0.51,1.95-1.14,3.91-1.89,5.91l-1.03-2.19l-35.65-75.59c-0.24-0.5-1-0.18-0.8,0.34
						c8.25,21.07,25.16,63.75,29.02,69.84c3.73,5.88,6.65,8.39,6.65,8.39c0.31,0.66-0.04,1.44-0.74,1.65l-2.51,0.73
						c0,0-3.28-1.23-6.73-8.01c-10.54-20.76-38.05-74.17-38.05-74.17l39.52,84.69c-1.34,0.83-4.2,1.7-8.33,2.52l-40.62-84.09
						l36.56,85.73c-1.25,0.62-2.59,1.08-5.14,1.73l-38.53-84.39l33.3,86.37c-1.68,0.71-4.2,1.42-7.65,2.25l-26.52-66.83
						c0,0.04,0.01,0.07,0.01,0.11c0-0.04,0-0.07-0.01-0.11c0,0,0,0,0,0c-0.02-1.36-0.49-2.61-1.26-3.63c0,0,0,0,0,0
						c-0.11-0.14-0.23-0.28-0.35-0.42c0,0,0,0,0,0c0,0,0,0,0,0c0,0,0,0,0,0l-4.97-12.52c-0.3-0.74-1.41-0.42-1.27,0.36l1.87,10.14
						c-0.07,0-0.13-0.01-0.2-0.01h-9.17l-1.56-4.37c-0.33-0.91-1.67-0.72-1.73,0.25l-0.24,4.12h-19.78h-4.06h-7.79l1.15-2.16
						l1.22-2.08C290.43,144.84,303.82,123.24,317.03,111.92z"/>
					<path class="st0" d="M358.53,228.07c0.28,0.41,0.64,0.95,1.05,1.57c4.49,6.78,16.1,25.06,18.74,36.78
						c-1.65,1.31-3.35,1.92-5.06,1.83c-2.75-0.15-4.94-2.07-5.66-2.77c-3.49-14.62-12.17-29.93-15.19-34.97l2.16-0.86L358.53,228.07
						z"/>
					<path class="st0" d="M370.07,224.31c0.57,1.14,1.48,3,2.62,5.34c4.95,10.17,14.04,29.42,16.23,37.93
						c-3.13,1.32-6.21-0.65-7.28-1.46c-2.42-11.44-12.83-28.41-18.09-36.47c-0.74-1.13-1.38-2.09-1.88-2.83l2.74-1.09
						C366.03,225.36,368.08,224.87,370.07,224.31z"/>
					<path class="st0" d="M420.59,262.1c-2.48-9.74-8.05-22.36-12.95-32.45c-3.72-7.66-7.04-13.87-8.34-16.25l6-1.75l0.05-0.01
						c0,0,0,0.01,0.01,0.01c1.45,2.66,3.07,1.72,6.14,10.56c2.34,6.73,2.07,9.42,10.47,27.41c1.79,3.83,0.42,2.8,3.04,8.45
						c1.82,3.93,3.48,5.26,4.18,8.72c-0.42,0.11-1.02,0.19-1.74,0.24C424.28,267.25,421.38,265.18,420.59,262.1z"/>
					<path class="st0" d="M403.94,229.65c5.86,11.96,12.99,28.03,14.41,37.99c-1.76,0.83-4.63,0.16-6.25-0.41
						c-1.87-8.84-10.76-25.61-17.56-37.58c-2.89-5.09-5.41-9.32-6.84-11.69c4.5-0.93,7.2-1.89,8.81-2.76
						C397.75,217.49,400.64,222.92,403.94,229.65z"/>
					<path class="st0" d="M390.71,229.65c6.73,11.76,16.12,29.16,18.09,37.94c-1.7,0.58-4.21-0.12-5.65-0.68
						c-1.77-7.63-12.1-25.71-19.01-37.25c-2.19-3.66-4.04-6.67-5.16-8.47c1.86-0.52,3.99-1.22,5.56-2.04
						C385.73,221.12,388.01,224.93,390.71,229.65z"/>
					<path class="st0" d="M380.29,229.65c7.91,13.12,17.87,30.74,19.57,37.74c-2.69,1.71-6.19,0.51-7.6-0.1
						c-1.99-8.32-10.67-26.89-15.88-37.64c-1.31-2.7-2.4-4.92-3.11-6.34c0.96-0.34,1.81-0.69,2.49-1.04
						C377.12,224.44,378.66,226.95,380.29,229.65z"/>
					<path class="st0" d="M332.45,149.31c0.43,0.01,0.85,0.07,1.26,0.17C333.3,149.38,332.88,149.32,332.45,149.31z"/>
					<path class="st0" d="M354.72,213.31c1.13,4.01,5.34,9.83,5.34,9.83l-7.41,2.83l-20.4-59.21l4.92-2.26
						C337.16,164.5,351.19,200.8,354.72,213.31z"/>
					<polygon class="st0" points="348.63,227.11 342.64,229.56 332.34,199 336.81,196.37 					"/>
				</g>
				<path class="st0" d="M285.72,149.27"/>
				<path class="st0" d="M265.95,461.26c0.6,1.16,1.34,2.61,1.77,3.57c0.48,1.08,2.12,4.15,5.59-0.21c0.99-1.24,1.68-2.74,2.07-3.73
					c-1.94-2.55-4.09-6.03-5.75-10.5C269.09,453.75,268.02,457.69,265.95,461.26z"/>
				<path class="st0" d="M249.38,463.91c0.15,0.4,0.29,0.75,0.4,1.01c0.48,1.08,2.64,4.72,4.69-0.46c0.3-0.77,0.51-1.68,0.64-2.4
					c-1.62-2.73-3.31-6.91-4.57-13.31C249.66,452.66,248.84,458.21,249.38,463.91z"/>
				<path class="st0" d="M192.88,461.29c0.41,0.96,1.04,2.24,1.91,3.33c3.47,4.36,5.11,1.29,5.59,0.21c0.49-1.09,1.36-2.8,1.99-4.01
					c-1.9-3.45-2.91-7.21-3.43-10.43C197.19,455.1,194.9,458.71,192.88,461.29z"/>
				<path class="st0" d="M218.02,448.75c-1.35,6.88-3.2,11.19-4.92,13.89c0.13,0.59,0.3,1.24,0.53,1.82
					c2.04,5.18,4.21,1.54,4.69,0.46c0.26-0.59,0.63-1.6,0.99-2.68C219.56,457.14,218.82,452.28,218.02,448.75z"/>
				<path class="st0" d="M184.59,420.17l0.05,0.16c0.01-0.06,0.03-0.12,0.04-0.18L184.59,420.17z"/>
				<path class="st0" d="M270.55,444.36l-0.07-0.33C270.51,444.14,270.53,444.25,270.55,444.36z"/>
				<path class="st0" d="M270.12,442.21L270.12,442.21l0.37,1.82C270.35,443.43,270.23,442.83,270.12,442.21z"/>
				<g>
					<path class="st0" d="M349.35,383.2c0.3-0.26,0.39-0.61,0.4-1.02c0.03-1.9,0.85-3.52,1.84-5.08c1.67-2.64,3.55-5.12,5.63-7.44
						c0.57-0.64,1.21-1.22,1.86-1.78c0.42-0.36,0.92-0.59,1.48-0.3c0.61,0.31,0.74,0.88,0.7,1.51c-0.01,0.21-0.03,0.43-0.06,0.64
						c-0.71,5.18-3,9.48-7.17,12.71c-0.94,0.73-1.87,1.55-3.01,1.82c-1.97,0.46-3,2.07-4.45,3.17c3.76-1.02,7.49-1.99,11.33-2.48
						c1.12-0.14,2.25-0.25,3.37,0.01c1.65,0.39,2.03,1.63,0.85,2.81c-0.45,0.45-0.95,0.88-1.49,1.22c-3.92,2.49-8.2,3.71-12.84,3.54
						c-2.1-0.08-4.18-0.37-6.01-1.55c-0.47-0.31-0.8-0.07-1.18,0.14c-1.59,0.9-3.18,1.79-4.84,2.55c-0.8,0.37-1.55,0.83-2.42,1.29
						c0.55,0.3,0.97,0.18,1.38,0.18c3.92-0.03,7.84,0.04,11.74,0.58c1.49,0.21,2.99,0.35,4.42,0.86c0.51,0.18,1.01,0.35,1.41,0.75
						c0.78,0.78,0.74,1.52-0.14,2.15c-0.26,0.18-0.57,0.3-0.86,0.43c-1.62,0.76-3.37,1.09-5.11,1.43c-4.85,0.96-9.6,0.79-14.25-1.11
						c-1.54-0.63-3.12-1.2-4.58-1.99c-0.99-0.53-1.91-0.56-2.92-0.22c-2.2,0.73-4.46,1.18-6.72,1.65c-0.3,0.06-0.69-0.02-1.05,0.43
						c0.86,0.24,1.57,0.44,2.29,0.64c3.22,0.88,6.37,1.97,9.45,3.23c0.65,0.26,1.29,0.54,1.83,1.01c1.08,0.94,0.97,1.91-0.31,2.51
						c-0.48,0.23-1.01,0.37-1.53,0.48c-2.73,0.56-5.45,0.47-8.16-0.14c-4.17-0.94-7.66-3.08-10.58-6.14
						c-0.73-0.77-1.46-1.08-2.52-1.03c-2.15,0.11-4.29-0.08-6.44-0.26c-0.4-0.03-0.83-0.26-1.28,0.11c0.44,0.45,1.01,0.63,1.51,0.89
						c3.65,1.85,7.08,4.07,10.43,6.41c0.57,0.4,1.14,0.81,1.46,1.47c0.47,0.95,0.27,1.48-0.7,1.92c-0.66,0.29-1.35,0.34-2.05,0.32
						c-3.18-0.08-6.17-0.92-8.9-2.53c-3.58-2.1-6.37-5.08-8.78-8.41c-0.77-1.06-1.56-1.69-2.92-1.93c-3.39-0.58-6.74-1.37-9.95-2.67
						c-0.9-0.37-1.74-0.84-2.5-1.45c-0.21-0.17-0.37-0.43-0.22-0.71c0.2-0.36,0.45-0.11,0.66,0.02c4.41,2.61,9.41,3.11,14.37,4.18
						c0.06-0.98,0.41-1.7,0.84-2.38c2.2-3.54,4.86-6.68,8.12-9.31c1.1-0.88,2.29-1.59,3.63-2.04c0.75-0.25,1.5-0.34,2.11,0.28
						c0.61,0.63,0.51,1.37,0.16,2.1c-0.14,0.29-0.26,0.59-0.42,0.87c-2.5,4.42-6.02,7.78-10.46,10.22c-0.29,0.16-0.77,0.11-0.81,0.7
						c3.62,0.58,7.25,0.91,10.9,0.9c0.78,0,1.28-0.21,1.43-1.1c0.1-0.56,0.45-1.09,0.74-1.6c2.42-4.16,5.29-7.97,8.93-11.14
						c1.58-1.38,3.25-2.65,5.28-3.32c0.78-0.26,1.59-0.33,2.24,0.39c0.63,0.7,0.34,1.41,0.04,2.11c-1.73,4.07-4.16,7.62-7.59,10.46
						c-1.68,1.39-3.53,2.52-5.58,3.83c0.49,0.02,0.7,0.05,0.91,0.03c3.31-0.34,6.59-0.92,9.81-1.77c1.19-0.32,2.41-0.55,3.53-1.11
						c0.37-0.18,0.86-0.31,0.78-0.88c-0.18-1.36,0.45-2.51,0.91-3.7c1.79-4.67,4.76-8.64,7.69-12.63c0.64-0.86,1.4-1.64,2.3-2.24
						c0.83-0.56,1.79-0.11,1.88,0.88c0.03,0.37-0.06,0.75-0.12,1.12c-0.98,5.55-3.38,10.39-7.29,14.46
						c-0.24,0.25-0.64,0.4-0.54,0.93c1.73-0.52,3.33-1.3,4.87-2.14c1.58-0.86,3.34-1.46,4.64-2.81c0.18-0.19,0.48-0.26,0.31-0.6
						c-0.76-1.48-0.25-2.96,0.08-4.39c1.01-4.36,2.52-8.56,4.33-12.64c0.5-1.12,1.08-2.23,1.96-3.13c0.72-0.73,1.47-0.59,1.91,0.33
						c0.17,0.34,0.21,0.71,0.21,1.1c-0.08,5.4-1,10.58-3.83,15.29c-0.24,0.41-0.6,0.76-0.59,1.39
						C346.69,385.49,348.02,384.35,349.35,383.2z"/>
					<path class="st0" d="M125.48,386.44c0.01-0.62-0.35-0.98-0.59-1.39c-2.83-4.71-3.75-9.89-3.83-15.29
						c-0.01-0.39,0.04-0.75,0.21-1.1c0.44-0.92,1.19-1.06,1.91-0.33c0.88,0.89,1.46,2,1.96,3.13c1.82,4.08,3.33,8.28,4.33,12.64
						c0.33,1.43,0.85,2.92,0.08,4.39c-0.18,0.34,0.13,0.41,0.31,0.6c1.3,1.35,3.06,1.95,4.64,2.81c1.54,0.83,3.14,1.61,4.87,2.14
						c0.11-0.53-0.3-0.69-0.54-0.93c-3.91-4.07-6.31-8.91-7.29-14.46c-0.07-0.37-0.16-0.75-0.12-1.12c0.09-0.99,1.05-1.43,1.88-0.88
						c0.9,0.6,1.66,1.38,2.3,2.24c2.93,3.98,5.89,7.95,7.69,12.63c0.46,1.19,1.09,2.35,0.91,3.7c-0.07,0.57,0.42,0.69,0.78,0.88
						c1.11,0.56,2.34,0.79,3.53,1.11c3.22,0.86,6.5,1.43,9.81,1.77c0.2,0.02,0.41-0.01,0.91-0.03c-2.05-1.31-3.9-2.44-5.58-3.83
						c-3.43-2.84-5.87-6.39-7.59-10.46c-0.29-0.69-0.58-1.41,0.04-2.11c0.65-0.72,1.46-0.64,2.24-0.39
						c2.03,0.67,3.71,1.95,5.28,3.32c3.64,3.18,6.51,6.99,8.93,11.14c0.3,0.51,0.65,1.04,0.74,1.6c0.15,0.89,0.65,1.1,1.43,1.1
						c3.65,0.01,7.27-0.32,10.9-0.9c-0.04-0.59-0.53-0.54-0.81-0.7c-4.44-2.43-7.96-5.8-10.46-10.22c-0.16-0.28-0.27-0.58-0.42-0.87
						c-0.35-0.73-0.45-1.47,0.16-2.1c0.6-0.62,1.36-0.53,2.11-0.28c1.34,0.45,2.53,1.16,3.63,2.04c3.26,2.62,5.92,5.76,8.12,9.31
						c0.43,0.69,0.78,1.41,0.84,2.38c4.96-1.07,9.96-1.57,14.37-4.18c0.21-0.12,0.46-0.38,0.66-0.02c0.15,0.28-0.01,0.54-0.22,0.71
						c-0.76,0.61-1.6,1.08-2.5,1.45c-3.2,1.31-6.56,2.09-9.95,2.67c-1.36,0.23-2.15,0.87-2.92,1.93c-2.41,3.33-5.2,6.31-8.78,8.41
						c-2.73,1.6-5.72,2.44-8.9,2.53c-0.7,0.02-1.39-0.03-2.05-0.32c-0.97-0.43-1.17-0.97-0.7-1.92c0.32-0.65,0.9-1.07,1.46-1.47
						c3.35-2.34,6.78-4.56,10.43-6.41c0.51-0.26,1.07-0.44,1.51-0.89c-0.45-0.37-0.88-0.15-1.28-0.11
						c-2.14,0.18-4.29,0.37-6.44,0.26c-1.06-0.06-1.79,0.26-2.52,1.03c-2.92,3.07-6.41,5.2-10.58,6.14
						c-2.71,0.61-5.43,0.7-8.16,0.14c-0.52-0.11-1.05-0.25-1.53-0.48c-1.28-0.6-1.39-1.57-0.31-2.51c0.53-0.46,1.18-0.74,1.83-1.01
						c3.09-1.26,6.23-2.35,9.45-3.23c0.72-0.2,1.43-0.4,2.29-0.64c-0.36-0.46-0.75-0.37-1.05-0.43c-2.26-0.46-4.53-0.91-6.72-1.65
						c-1-0.34-1.93-0.31-2.92,0.22c-1.46,0.79-3.04,1.36-4.58,1.99c-4.64,1.9-9.4,2.07-14.25,1.11c-1.74-0.35-3.48-0.68-5.11-1.43
						c-0.29-0.14-0.6-0.25-0.86-0.43c-0.89-0.63-0.92-1.36-0.14-2.15c0.4-0.4,0.9-0.57,1.41-0.75c1.43-0.51,2.93-0.66,4.42-0.86
						c3.89-0.54,7.81-0.61,11.74-0.58c0.41,0,0.84,0.13,1.38-0.18c-0.87-0.47-1.62-0.93-2.42-1.29c-1.66-0.76-3.25-1.65-4.84-2.55
						c-0.37-0.21-0.71-0.44-1.18-0.14c-1.83,1.18-3.91,1.47-6.01,1.55c-4.64,0.17-8.93-1.05-12.84-3.54
						c-0.54-0.34-1.04-0.77-1.49-1.22c-1.18-1.19-0.8-2.43,0.85-2.81c1.11-0.26,2.24-0.15,3.37-0.01c3.84,0.49,7.57,1.45,11.33,2.48
						c-1.45-1.11-2.48-2.72-4.45-3.17c-1.15-0.27-2.08-1.09-3.01-1.82c-4.17-3.24-6.45-7.53-7.17-12.71
						c-0.03-0.21-0.05-0.43-0.06-0.64c-0.04-0.63,0.09-1.19,0.7-1.51c0.56-0.29,1.07-0.06,1.48,0.3c0.65,0.56,1.29,1.15,1.86,1.78
						c2.08,2.33,3.96,4.81,5.63,7.44c0.99,1.56,1.81,3.18,1.84,5.08c0.01,0.4,0.1,0.76,0.4,1.02
						C122.59,384.35,123.92,385.49,125.48,386.44z"/>
					<path class="st0" d="M255.78,372.77l-2.56,0.53l6.49,31.42c0.91,0.17,1.84,0.35,2.78,0.54L255.78,372.77z"/>
					<path class="st0" d="M215.35,373.3l-2.56-0.53l-6.68,32.36c0.95-0.18,1.87-0.36,2.78-0.52L215.35,373.3z"/>
					<path class="st0" d="M268.79,352.57l-2.55,0.57c0.1,0.44,6.58,29.35,12.5,55.88c0.94,0.25,1.89,0.51,2.85,0.77
						C275.58,382.9,268.89,353.02,268.79,352.57z"/>
					<path class="st0" d="M234.28,368.68c4.68,6.38,11.24,16.81,10.5,20.05c-0.7,3.03-1.82,7.95-3.05,13.37
						c0.81,0.08,1.69,0.18,2.62,0.28c1.21-5.3,2.3-10.09,2.98-13.07c1.27-5.54-9.39-20.13-11.54-23l-1.51,1.13l0.59,0.44
						C234.68,368.14,234.48,368.41,234.28,368.68z"/>
					<path class="st0" d="M202.33,353.15l-2.55-0.57c-0.1,0.45-6.75,30.15-12.74,56.97c0.96-0.26,1.91-0.51,2.85-0.75
						C195.79,382.33,202.23,353.59,202.33,353.15z"/>
					<path class="st0" d="M223.78,388.73c-0.74-3.24,5.82-13.67,10.5-20.05c-0.2-0.27-0.4-0.54-0.59-0.8l0.59-0.44l-1.51-1.13
						c-2.15,2.87-12.82,17.46-11.54,23c0.68,2.97,1.77,7.74,2.97,13.03c0.94-0.1,1.81-0.19,2.62-0.27
						C225.6,396.66,224.48,391.76,223.78,388.73z"/>
				</g>
				<path class="st0" d="M198.1,443.91l0.35-1.7l-0.01,0C198.35,442.79,198.22,443.35,198.1,443.91z"/>
				<path class="st0" d="M289.15,443.85c-0.14-0.65-0.29-1.33-0.45-2.04c-0.14-0.05-0.27-0.08-0.4-0.13
					c-0.84-0.29-1.67-0.56-2.49-0.83c0.28,1.27,0.55,2.47,0.79,3.57c1.14,5.15-0.78,11.46-5.7,18.74
					c-2.33-2.22-7.96-8.47-10.34-18.8c-0.02-0.11-0.04-0.22-0.07-0.33l-0.37-1.82l-1.31-6.34c-0.96-0.24-1.9-0.48-2.82-0.7
					l1.54,7.47c0.05,1.4,0.35,14.47-7.17,21.58c-1.63-1.17-6.14-5.78-8.14-21.67l-0.66-5.21l-1.86,4.9
					c-0.16,0.43-3.69,9.85-3.05,20.48c-4.65-4.36-13.97-15.47-8.96-31.02l0.03-0.11c0.01-0.03,0.09-0.41,0.24-1.06
					c-1.15-0.08-2.04-0.12-2.65-0.14c-0.06,0.28-0.11,0.48-0.13,0.57c-0.38,1.18-0.66,2.32-0.89,3.45
					c-0.23-1.13-0.52-2.28-0.89-3.45c-0.02-0.09-0.07-0.29-0.13-0.57c-0.61,0.02-1.51,0.06-2.65,0.14c0.15,0.65,0.23,1.03,0.24,1.07
					l0.03,0.11c5.01,15.55-4.31,26.66-8.96,31.02c0.64-10.63-2.88-20.05-3.04-20.48l-1.86-4.9l-0.66,5.21
					c-2.01,15.93-6.54,20.52-8.14,21.67c-7.53-7.12-7.23-20.2-7.18-21.59l1.58-7.65c-0.92,0.22-1.86,0.44-2.81,0.68l-1.35,6.54
					l-0.35,1.7l-0.09,0.45c-2.38,10.32-8.01,16.57-10.34,18.79c-4.92-7.29-6.84-13.59-5.7-18.74c0.26-1.19,0.55-2.49,0.86-3.87
					c-0.95,0.31-1.92,0.63-2.89,0.96c-0.18,0.82-0.36,1.61-0.52,2.35c-1.36,6.19,0.98,13.6,6.95,22.02l0.79,1.11l1.08-0.83
					c0.18-0.14,2.22-1.75,4.65-4.86c2.02-2.58,4.31-6.19,6.06-10.89c0.52,3.22,1.53,6.97,3.43,10.43c1.21,2.19,2.78,4.26,4.82,6
					l0.55,0.46l0.69-0.21c0.4-0.13,2.43-0.91,4.67-4.43c1.72-2.7,3.57-7.02,4.92-13.89c0.8,3.53,1.55,8.39,1.29,13.5
					c-0.06,1.12-0.14,2.25-0.31,3.39l-0.44,3.06l2.5-1.81c0.14-0.1,10.55-7.8,13.23-20.53c2.67,12.73,13.08,20.43,13.23,20.53
					l2.5,1.81l-0.44-3.06c-0.08-0.58-0.14-1.15-0.19-1.72c-0.54-5.71,0.28-11.25,1.17-15.16c1.25,6.4,2.95,10.59,4.57,13.31
					c2.38,4.01,4.6,4.87,5.03,5.01l0.69,0.21l0.55-0.46c1.91-1.62,3.4-3.53,4.58-5.56c2.06-3.57,3.13-7.51,3.67-10.86
					c1.66,4.46,3.81,7.95,5.75,10.5c2.57,3.38,4.77,5.11,4.96,5.26l1.08,0.83l0.79-1.11C288.18,457.45,290.52,450.04,289.15,443.85z
					"/>
				<path class="st0" d="M234.28,368.68c0.2-0.27,0.4-0.54,0.59-0.8l-0.59-0.44l-0.59,0.44
					C233.89,368.14,234.09,368.41,234.28,368.68z"/>
				<polygon class="st0" points="262.79,420.43 262.95,420.47 262.87,420.08 				"/>
				<g>
					<path class="st0" d="M216.37,420.31c0.25,0.48,0.58,0.82,0.97,1.02c0.39,0.2,0.86,0.27,1.38,0.2c0.53-0.07,0.95-0.25,1.27-0.55
						c0.32-0.3,0.54-0.71,0.66-1.24c0.12-0.53,0.13-1.16,0.03-1.89c-0.1-0.75-0.28-1.35-0.53-1.83c-0.25-0.47-0.57-0.81-0.96-1.02
						c-0.39-0.2-0.85-0.27-1.37-0.2c-0.53,0.07-0.95,0.25-1.28,0.55c-0.33,0.3-0.55,0.71-0.67,1.23c-0.12,0.52-0.13,1.16-0.03,1.9
						C215.94,419.22,216.11,419.83,216.37,420.31z"/>
					<polygon class="st0" points="314.11,430.87 316.66,430.04 314.01,426.25 					"/>
					<polygon class="st0" points="164.38,432.7 167.03,432.24 164.94,428.11 					"/>
					<path class="st0" d="M292.73,413.11c-3.86-1.24-7.57-2.33-11.15-3.32c-0.96-0.27-1.91-0.52-2.85-0.77
						c-5.89-1.56-11.33-2.78-16.24-3.76c-0.95-0.19-1.88-0.37-2.78-0.54c-6.1-1.14-11.29-1.88-15.35-2.35
						c-0.93-0.11-1.81-0.2-2.62-0.28c-4.79-0.48-7.45-0.54-7.45-0.54s-2.67,0.06-7.45,0.52c-0.81,0.08-1.69,0.17-2.62,0.27
						c-4.06,0.45-9.25,1.16-15.32,2.26c-0.91,0.16-1.83,0.34-2.78,0.52c-4.92,0.95-10.36,2.15-16.22,3.66
						c-0.94,0.24-1.89,0.49-2.85,0.75c-3.87,1.05-7.9,2.23-12.08,3.57c-34.72,11.13-41.77-3.58-41.77-3.58v28
						c0,0,13.01,15.46,46.2,4.15c0.18-0.06,0.36-0.12,0.54-0.18c0.97-0.33,1.94-0.65,2.89-0.96c6.11-1.99,11.79-3.58,16.98-4.87
						c0.95-0.24,1.89-0.46,2.81-0.68c13.29-3.11,23.04-4.13,27.99-4.46c1.14-0.08,2.04-0.12,2.65-0.14
						c0.67-0.02,1.02-0.02,1.02-0.02s0.35,0,1.03,0.02c0.61,0.02,1.5,0.06,2.65,0.14c4.93,0.35,14.64,1.41,28.03,4.63
						c0.92,0.22,1.86,0.45,2.82,0.7c5.19,1.32,10.87,2.95,17.01,4.98c0.82,0.27,1.65,0.55,2.49,0.83c0.14,0.05,0.27,0.08,0.4,0.13
						c32.89,11.05,45.8-4.28,45.8-4.28v-28C334.5,409.53,327.45,424.24,292.73,413.11z M156.71,437.87l-8.27-1l1.31-10.86l2.83,0.34
						l-1.05,8.67l5.45,0.66L156.71,437.87z M169.06,436.36l-1.18-2.3l-3.69,0.65l-0.34,2.57l-2.82,0.5l1.9-11.44l3.36-0.59
						l5.66,10.11L169.06,436.36z M189.04,429.22c-0.56,0.97-1.62,1.7-3.16,2.17c-0.38,0.11-0.74,0.2-1.08,0.26
						c-1.01,0.17-1.88,0.08-2.62-0.25c-0.04-0.02-0.08-0.02-0.12-0.04c-1.02-0.49-1.75-1.48-2.2-2.96l-1.89-6.2l2.74-0.84l1.91,6.25
						c0.07,0.25,0.16,0.46,0.26,0.65c0.2,0.4,0.44,0.7,0.74,0.88c0.44,0.27,0.98,0.31,1.62,0.11c0.04-0.01,0.07-0.03,0.12-0.04
						c0.59-0.2,0.99-0.52,1.18-0.96c0.21-0.47,0.2-1.08-0.03-1.83l-0.31-1.01l-1.55-5.08l-0.05-0.16l0.09-0.03l2.64-0.81l0.13,0.42
						l1.76,5.78C189.66,427.01,189.6,428.24,189.04,429.22z M216.88,409.06l2.5-0.33l-1.11,2.87l-2.04,0.27L216.88,409.06z
						 M201.62,426.87l-1.04,0.26l-4.75-4.9l-1.2-1.37l-0.02,0l0.56,1.94l1.35,5.35l-2.44,0.62l-2.68-10.6l3.07-0.78l4.75,4.9
						l1.2,1.37l0.02,0l-0.56-1.94l-1.35-5.35l2.44-0.62l1.63,6.43l1.06,4.18L201.62,426.87z M207.51,425.56l-1.45-7.24l-0.7-3.49
						l1.48-0.3l1.31-0.26L210.3,425L207.51,425.56z M223.34,420.55c-0.32,0.89-0.84,1.61-1.58,2.16c-0.74,0.55-1.65,0.9-2.75,1.04
						c-1.1,0.15-2.07,0.05-2.93-0.29c-0.86-0.34-1.56-0.89-2.09-1.67c-0.54-0.78-0.88-1.75-1.04-2.92c-0.16-1.17-0.08-2.2,0.24-3.09
						c0.32-0.89,0.84-1.61,1.59-2.16c0.74-0.55,1.66-0.9,2.75-1.04c1.09-0.15,2.07-0.05,2.92,0.29c0.85,0.34,1.55,0.9,2.09,1.67
						c0.54,0.78,0.88,1.75,1.04,2.92C223.73,418.63,223.65,419.66,223.34,420.55z M237.1,422.48l-2.81,0.04l-3.48-5.87l-0.85-1.61
						h-0.02l0.04,0.9l0.05,1.12l0.08,5.52l-1.31,0.02l-1.21,0.02l-0.08-5.73l-0.08-5.21l1.57-0.02l1.59-0.02l3.48,5.87l0.85,1.61
						h0.02l-0.1-2.02l-0.08-5.52l2.52-0.04l0.14,9.47l0.02,1.47L237.1,422.48z M255.46,425.48l-8.19-1.56l2.05-10.74l2.8,0.53
						l-1.63,8.58l5.39,1.03L255.46,425.48z M268.81,419.51l-3.55-0.8l-1.98-0.45l-0.41,1.81l0.08,0.39l2.8,0.63l1.43,0.32
						l-0.45,2.02l-0.52-0.12l-2.8-0.63l-1.07-0.24l-0.49,2.18l2.06,0.46l2.8,0.63l0.88,0.2l-0.44,1.94l-0.05,0.21l-2.71-0.61
						l-5.82-1.31l2.4-10.67l0.99,0.22l2.8,0.63l4.52,1.02L268.81,419.51z M281.54,421.62l-0.2,0.86l-3.47-0.82l-2.02,8.5l-2.77-0.66
						l2.02-8.5l-3.48-0.83l0.51-2.14l9.1,2.16l0.62,0.15L281.54,421.62z M285.96,429.46l-0.69,2.92l-1.42-0.33l-1.36-0.32l0.66-2.81
						l1.38-5.87l0.46-1.97l2.78,0.65L285.96,429.46z M292.63,430.37c0.08,0.54,0.28,0.97,0.6,1.3c0.32,0.33,0.76,0.55,1.31,0.67
						c0.52,0.11,0.99,0.06,1.41-0.15c0.42-0.21,0.76-0.6,1.02-1.16l2.38,1.25c-0.36,0.7-0.82,1.25-1.38,1.63
						c-0.56,0.38-1.17,0.62-1.85,0.71c-0.67,0.09-1.39,0.05-2.15-0.11c-1.08-0.23-1.97-0.65-2.66-1.25
						c-0.7-0.61-1.17-1.36-1.41-2.28c-0.25-0.91-0.25-1.94,0-3.1c0.25-1.16,0.67-2.1,1.26-2.83c0.6-0.73,1.34-1.23,2.22-1.5
						c0.88-0.27,1.86-0.29,2.93-0.06c0.75,0.16,1.41,0.41,1.99,0.76c0.58,0.34,1.04,0.78,1.38,1.3c0.34,0.52,0.53,1.15,0.57,1.87
						l-2.66,0.47c-0.01-0.7-0.16-1.21-0.44-1.53c-0.29-0.32-0.69-0.54-1.21-0.65c-0.51-0.11-0.97-0.08-1.4,0.09
						c-0.43,0.17-0.79,0.48-1.1,0.93c-0.3,0.45-0.53,1.04-0.69,1.78C292.6,429.21,292.56,429.84,292.63,430.37z M305.34,436.29
						l-2.83-0.35l1.35-10.85l2.83,0.35L305.34,436.29z M319.26,433.83l-1.49-2.11l-3.56,1.16l0.03,2.59l-2.73,0.89l0.26-11.59
						l3.25-1.06l7.03,9.21L319.26,433.83z"/>
					<g>
						<path class="st0" d="M74.18,442.78c-0.19-0.17-0.42-0.27-0.68-0.32c-0.26-0.05-0.54-0.02-0.82,0.06
							c-0.45,0.14-0.78,0.38-0.97,0.72c-0.19,0.34-0.21,0.74-0.07,1.2c0.13,0.42,0.37,0.71,0.72,0.86c0.35,0.15,0.74,0.16,1.19,0.02
							c0.29-0.09,0.52-0.23,0.71-0.41c0.19-0.19,0.32-0.4,0.38-0.65c0.06-0.25,0.05-0.51-0.04-0.8
							C74.51,443.18,74.37,442.95,74.18,442.78z"/>
						<path class="st0" d="M137.45,399.29c0,0-40.4,33.04-119.89,46.53v27.54c0,0,77.65-12.64,115.62-41.77v-22.06
							C131.61,405.57,137.45,399.29,137.45,399.29z M65.34,454l-1.72-6.06c-0.08-0.28-0.16-0.56-0.23-0.86
							c-0.08-0.29-0.16-0.59-0.25-0.9c-0.26,0.42-0.57,0.81-0.93,1.17c-0.36,0.36-0.76,0.65-1.2,0.87l-0.9-2.19
							c0.27-0.1,0.55-0.25,0.83-0.46c0.28-0.21,0.55-0.44,0.81-0.7c0.26-0.26,0.48-0.52,0.67-0.79c0.19-0.27,0.32-0.51,0.39-0.74
							l2.18-0.62l2.99,10.52L65.34,454z M78.46,447.7c-0.13,0.91-0.46,1.66-1,2.24c-0.54,0.58-1.23,1-2.09,1.26
							c-0.91,0.28-1.75,0.34-2.54,0.19c-0.78-0.16-1.46-0.58-2.03-1.27l2.14-1.72c0.2,0.34,0.45,0.58,0.75,0.72
							c0.3,0.14,0.67,0.14,1.09,0.01c0.33-0.1,0.59-0.26,0.79-0.46c0.2-0.21,0.34-0.46,0.41-0.76c0.07-0.3,0.09-0.64,0.05-1.03
							c-0.04-0.39-0.13-0.82-0.28-1.29c-0.01-0.04-0.02-0.08-0.04-0.12c-0.01-0.04-0.03-0.08-0.04-0.13l-0.05,0.01
							c-0.02,0.35-0.13,0.67-0.33,0.95c-0.2,0.28-0.45,0.53-0.76,0.73c-0.31,0.21-0.64,0.36-1,0.48c-0.65,0.2-1.28,0.25-1.87,0.14
							c-0.6-0.11-1.11-0.37-1.55-0.77c-0.44-0.4-0.76-0.93-0.96-1.58c-0.23-0.75-0.27-1.44-0.1-2.08c0.17-0.64,0.5-1.19,1.01-1.68
							c0.5-0.48,1.16-0.84,1.96-1.09c0.96-0.3,1.83-0.34,2.6-0.14c0.78,0.2,1.45,0.65,2.02,1.34c0.57,0.69,1.04,1.62,1.41,2.79
							C78.46,445.7,78.59,446.79,78.46,447.7z M89.56,444.79c-0.17,0.59-0.51,1.11-1,1.58c-0.49,0.46-1.11,0.82-1.85,1.09
							c-1.1,0.39-2.1,0.5-2.99,0.33c-0.89-0.17-1.62-0.63-2.19-1.36l2.09-1.94c0.18,0.36,0.39,0.62,0.61,0.8
							c0.22,0.17,0.47,0.27,0.74,0.28c0.28,0.01,0.57-0.04,0.9-0.15c0.29-0.1,0.52-0.24,0.69-0.41c0.17-0.17,0.28-0.37,0.32-0.6
							c0.05-0.23,0.03-0.47-0.07-0.73c-0.1-0.27-0.23-0.47-0.4-0.6c-0.17-0.13-0.37-0.19-0.6-0.19s-0.49,0.05-0.78,0.15
							c-0.14,0.05-0.26,0.1-0.37,0.14c-0.11,0.05-0.24,0.11-0.38,0.18l-0.62-1.75c0.09-0.02,0.17-0.04,0.26-0.07
							c0.09-0.02,0.18-0.06,0.3-0.1c0.49-0.17,0.8-0.4,0.95-0.68c0.14-0.28,0.13-0.64-0.02-1.07c-0.13-0.37-0.34-0.62-0.62-0.75
							c-0.28-0.12-0.62-0.11-1,0.02c-0.41,0.14-0.7,0.37-0.89,0.67s-0.22,0.73-0.11,1.26l-2.65,0.02c-0.09-0.61-0.02-1.18,0.22-1.71
							c0.23-0.53,0.6-1,1.09-1.41c0.49-0.41,1.08-0.74,1.77-0.98c0.79-0.28,1.5-0.4,2.12-0.36c0.62,0.04,1.15,0.22,1.58,0.55
							c0.43,0.33,0.75,0.78,0.95,1.35c0.16,0.45,0.22,0.85,0.19,1.2c-0.03,0.35-0.12,0.66-0.27,0.92c-0.15,0.26-0.31,0.48-0.5,0.64
							c-0.19,0.17-0.35,0.29-0.49,0.36l0.02,0.05c0.19-0.07,0.41-0.1,0.68-0.12s0.54,0.02,0.83,0.1c0.29,0.08,0.55,0.23,0.8,0.46
							s0.45,0.55,0.6,0.97C89.71,443.59,89.73,444.2,89.56,444.79z M101,439.86c-0.09,0.64-0.36,1.22-0.8,1.73
							c-0.44,0.52-1.04,0.94-1.81,1.28c-0.86,0.38-1.7,0.52-2.52,0.43c-0.82-0.09-1.57-0.44-2.26-1.03
							c-0.69-0.6-1.28-1.45-1.77-2.56c-0.52-1.19-0.76-2.26-0.7-3.2c0.06-0.94,0.34-1.75,0.84-2.43c0.5-0.68,1.18-1.2,2.02-1.57
							c0.54-0.24,1.07-0.38,1.59-0.44c0.52-0.06,1.03,0,1.51,0.17c0.49,0.17,0.94,0.5,1.35,0.97l-1.69,1.93
							c-0.26-0.31-0.55-0.51-0.89-0.61c-0.34-0.1-0.72-0.06-1.13,0.12c-0.28,0.12-0.51,0.31-0.69,0.55
							c-0.18,0.24-0.3,0.53-0.36,0.85c-0.06,0.33-0.05,0.69,0.02,1.1c0.07,0.4,0.21,0.83,0.41,1.29c0.01,0.03,0.03,0.06,0.04,0.1
							c0.02,0.04,0.04,0.08,0.06,0.14l0.07,0.08c-0.01-0.36,0.07-0.7,0.23-1.02c0.17-0.32,0.39-0.61,0.68-0.87
							c0.29-0.26,0.59-0.46,0.93-0.61c0.62-0.27,1.22-0.39,1.81-0.36c0.59,0.03,1.13,0.21,1.6,0.54c0.48,0.33,0.85,0.81,1.13,1.45
							C100.99,438.56,101.09,439.22,101,439.86z"/>
						<path class="st0" d="M97.85,438.33c-0.2-0.15-0.42-0.23-0.68-0.25c-0.25-0.02-0.54,0.05-0.85,0.18
							c-0.26,0.11-0.48,0.27-0.65,0.48c-0.17,0.2-0.28,0.43-0.31,0.69c-0.04,0.26,0,0.52,0.12,0.8c0.11,0.26,0.28,0.47,0.5,0.61
							c0.22,0.14,0.46,0.23,0.72,0.24c0.26,0.02,0.52-0.03,0.79-0.15c0.46-0.2,0.76-0.47,0.9-0.81s0.13-0.72-0.06-1.15
							C98.2,438.69,98.04,438.47,97.85,438.33z"/>
					</g>
					<g>
						<path class="st0" d="M386.05,439.7c-0.18-0.2-0.41-0.35-0.68-0.46c-0.44-0.17-0.84-0.18-1.2-0.04s-0.63,0.44-0.8,0.9
							c-0.16,0.41-0.15,0.79,0.03,1.12c0.18,0.34,0.48,0.59,0.92,0.75c0.28,0.11,0.55,0.15,0.82,0.12c0.26-0.03,0.5-0.12,0.7-0.27
							c0.2-0.15,0.36-0.37,0.46-0.65c0.11-0.29,0.14-0.56,0.1-0.81C386.33,440.13,386.22,439.9,386.05,439.7z"/>
						<path class="st0" d="M404.51,452.42c0.08,0.25,0.22,0.47,0.41,0.64c0.19,0.18,0.43,0.3,0.7,0.38
							c0.48,0.13,0.88,0.11,1.21-0.06c0.33-0.17,0.55-0.48,0.68-0.93c0.08-0.3,0.09-0.57,0.03-0.81c-0.06-0.24-0.18-0.45-0.37-0.62
							c-0.19-0.17-0.45-0.3-0.78-0.39c-0.28-0.08-0.55-0.09-0.8-0.04c-0.26,0.05-0.49,0.16-0.68,0.34c-0.19,0.18-0.33,0.41-0.4,0.7
							C404.43,451.91,404.43,452.17,404.51,452.42z"/>
						<path class="st0" d="M330.74,399.63c0,0,5.34,5.94,3.77,9.9v22.06c37.98,29.14,115.62,41.77,115.62,41.77v-27.54
							C370.64,432.33,330.74,399.63,330.74,399.63z M372.45,443.66l2.41-5.82c0.11-0.27,0.23-0.54,0.35-0.82s0.24-0.57,0.37-0.86
							c-0.46,0.17-0.95,0.28-1.45,0.34c-0.5,0.06-1,0.04-1.48-0.07l0.66-2.28c0.27,0.09,0.58,0.14,0.93,0.15
							c0.35,0.01,0.7,0,1.07-0.04c0.36-0.04,0.7-0.11,1.02-0.2c0.31-0.09,0.57-0.2,0.77-0.34l2.1,0.87l-4.19,10.1L372.45,443.66z
							 M388.39,444.08c-0.48,1.24-1.05,2.17-1.72,2.81c-0.67,0.64-1.39,1.01-2.17,1.13c-0.78,0.12-1.59,0.02-2.42-0.31
							c-0.89-0.34-1.59-0.82-2.1-1.43c-0.52-0.61-0.79-1.36-0.8-2.26l2.75-0.02c-0.06,0.39-0.01,0.74,0.14,1.03
							c0.15,0.3,0.43,0.52,0.85,0.68c0.32,0.12,0.62,0.17,0.91,0.13c0.29-0.04,0.55-0.15,0.8-0.34c0.25-0.19,0.47-0.45,0.68-0.78
							c0.21-0.33,0.4-0.72,0.58-1.19c0.02-0.04,0.03-0.08,0.05-0.12c0.01-0.04,0.03-0.08,0.05-0.13l-0.05-0.02
							c-0.23,0.26-0.52,0.45-0.85,0.54c-0.33,0.1-0.68,0.13-1.05,0.1c-0.37-0.03-0.73-0.11-1.08-0.25c-0.64-0.25-1.16-0.6-1.55-1.06
							c-0.4-0.46-0.64-0.98-0.74-1.56c-0.09-0.59-0.02-1.2,0.23-1.84c0.28-0.73,0.69-1.29,1.21-1.69c0.53-0.39,1.14-0.62,1.83-0.69
							c0.69-0.06,1.43,0.06,2.21,0.36c0.94,0.36,1.65,0.87,2.13,1.51c0.48,0.64,0.73,1.41,0.75,2.31
							C389.05,441.92,388.84,442.94,388.39,444.08z M399.57,445.26c-0.16,0.45-0.36,0.8-0.6,1.05c-0.25,0.25-0.51,0.44-0.79,0.55
							c-0.28,0.11-0.54,0.18-0.79,0.19c-0.25,0.01-0.45,0.01-0.61-0.02l-0.02,0.05c0.19,0.06,0.39,0.18,0.6,0.33
							c0.21,0.16,0.41,0.35,0.58,0.6c0.17,0.24,0.29,0.53,0.34,0.86c0.05,0.33,0.01,0.71-0.14,1.13c-0.22,0.65-0.59,1.15-1.09,1.5
							c-0.5,0.35-1.09,0.56-1.76,0.61c-0.67,0.05-1.38-0.05-2.12-0.3c-1.11-0.38-1.95-0.92-2.54-1.61c-0.59-0.69-0.87-1.5-0.87-2.43
							l2.84-0.21c-0.08,0.39-0.09,0.73-0.02,1c0.06,0.27,0.2,0.5,0.4,0.68c0.21,0.18,0.47,0.33,0.79,0.44
							c0.29,0.1,0.56,0.14,0.8,0.11c0.24-0.03,0.45-0.12,0.63-0.26c0.18-0.15,0.31-0.35,0.41-0.61c0.09-0.27,0.11-0.51,0.06-0.71
							c-0.05-0.2-0.17-0.38-0.34-0.52c-0.18-0.14-0.41-0.27-0.71-0.37c-0.14-0.05-0.26-0.09-0.38-0.12
							c-0.12-0.03-0.25-0.07-0.41-0.1l0.61-1.75c0.08,0.04,0.16,0.08,0.24,0.11c0.08,0.03,0.18,0.07,0.29,0.11
							c0.49,0.17,0.88,0.19,1.16,0.06c0.28-0.13,0.5-0.41,0.65-0.85c0.13-0.38,0.12-0.7-0.02-0.97c-0.15-0.27-0.41-0.48-0.8-0.61
							c-0.41-0.14-0.78-0.15-1.11-0.03c-0.33,0.12-0.63,0.43-0.88,0.91l-2.08-1.63c0.31-0.53,0.73-0.93,1.24-1.2
							c0.51-0.27,1.09-0.41,1.73-0.42c0.64-0.01,1.31,0.1,1.99,0.34c0.79,0.27,1.42,0.62,1.89,1.04c0.46,0.42,0.76,0.89,0.9,1.41
							S399.77,444.69,399.57,445.26z M404.53,449.73c0.21-0.29,0.49-0.5,0.82-0.64c0.33-0.14,0.69-0.23,1.07-0.25
							c0.38-0.02,0.75,0.02,1.1,0.11c0.65,0.18,1.2,0.46,1.64,0.86c0.44,0.4,0.74,0.87,0.91,1.42c0.16,0.55,0.15,1.17-0.03,1.84
							c-0.2,0.72-0.53,1.31-1.01,1.74c-0.48,0.44-1.05,0.72-1.71,0.85c-0.66,0.13-1.4,0.08-2.21-0.14
							c-0.91-0.25-1.65-0.67-2.23-1.25c-0.58-0.59-0.95-1.33-1.11-2.23c-0.16-0.9-0.08-1.93,0.24-3.1c0.34-1.26,0.83-2.23,1.47-2.93
							c0.64-0.7,1.37-1.15,2.18-1.36c0.82-0.21,1.67-0.2,2.56,0.05c0.56,0.15,1.07,0.37,1.51,0.65c0.44,0.28,0.8,0.64,1.07,1.08
							c0.27,0.44,0.41,0.97,0.44,1.6l-2.53,0.44c-0.01-0.4-0.11-0.75-0.31-1.04c-0.2-0.29-0.52-0.49-0.96-0.61
							c-0.3-0.08-0.59-0.09-0.88-0.01c-0.29,0.07-0.56,0.22-0.82,0.44c-0.25,0.22-0.48,0.5-0.67,0.86c-0.2,0.36-0.36,0.78-0.49,1.26
							c-0.01,0.03-0.02,0.07-0.03,0.1c-0.01,0.04-0.02,0.09-0.04,0.15L404.53,449.73z"/>
					</g>
				</g>
				<path class="st0" d="M137.84,303.98l-0.01-0.01c-0.47-0.84-1.38-1.57-0.74-2.71c-1.44-2.83-1.32-5.68-0.07-8.53
					c3.87-1.59,7.88-0.85,11.84-0.62c3.96,0.23,4.2,0.16,4.24-3.93c0.06-5.41-0.11-10.82,0.08-16.23c0.11-3.23,1.08-4.11,4.09-4.18
					c3.27-0.07,4.2,0.82,4.32,4.17c0.04,1.19,0.01,2.38,0.04,3.57c0.1,5.76-0.09,11.53,0.08,17.29c0.01,0.23,0.1,0.42,0.45,0.79
					c0.85-1.53,0.8-3.11,0.81-4.66c0.04-5.22,0.03-10.45,0.01-15.67c-0.01-2.66,0.47-4.57,3.77-4.94c2.75-0.31,5.14-1.57,4.76-5.15
					c-0.09-0.85,0.17-1.73,0.78-2.44c4.66-1.68,6.15-0.62,6.38,4.24c0.27,5.65-1.32,11.19-0.65,15.96c0.02-0.97-0.02-2.82,0-4.67
					c0.05-4.34,1.8-7.58,6.07-9.07c0.92-0.32,1.11-0.91,1.14-1.71c0.04-0.87,0.04-1.74,0.35-2.57c0.46-1.24,1.3-2,2.7-1.89
					c1.34,0.11,1.82,1.09,1.96,2.23c0.35,2.7,0.12,5.42,0.17,8.13c0.01,0.65-0.11,1.33,0.03,1.95c0.27,1.21-0.9,3.37,1.13,3.39
					c1.65,0.02,3.06-1.54,3.32-3.51c0.21-1.62,0.09-3.25,0.11-4.88c0.02-1.74-0.1-3.48,0.09-5.21c0.35-3.13,1.59-3.9,4.87-3.12
					c1.75,3.5,0.54,7.24,0.89,10.85c0.16,1.65-0.29,3.43,1.07,5.1c1.33-1.3,0.8-2.75,0.92-4.04c0.36-3.73-0.81-7.57,0.86-11.2
					c1.06-0.72,2.18-0.72,3.33-0.25c1.62,1.03,1.61,2.71,1.65,4.34c0.09,4.11-0.03,8.23,0.03,11.73c0.12-4.76,0.43-10.12,1.24-15.44
					c2.08-1.57,4.68-1.62,7.05-2.07c2.39-0.46,2.69,1.68,2.72,3.5c0.09,5.43-0.05,10.87,0.08,16.3c0.04,1.84-0.96,4.82,2.36,4.62
					c2.85-0.17,1.39-2.88,1.62-4.48c0.3-2.05-0.6-4.08-0.49-6.15c0.11-2.05,0.45-4.09,3.15-4.06c2.43,0.02,3.02,1.8,3.08,3.81
					c0.1,4.02,0.07,8.04,0.01,12.06c-0.03,2.42-1.37,4.04-3.18,5.4c-12.87,9.64-25.78,19.24-38.55,29.02
					c-1.68,1.29-3.51,1.86-5.5,1.29c-7.3-2.1-14.64-4.1-21.91-6.3c-3.39-1.81-7.26-1.62-10.85-2.56c-0.86-0.05-1.71-0.14-2.55-0.34
					c-1.51-0.67-3.6,0.05-4.58-1.9c-0.74-0.01-1.5,0.08-2.22-0.06c-0.93-0.18-2.54,0.66-2.63-0.8c-0.07-1.22-0.63-1.5-0.25-3.59
					C137.36,304.46,137.52,304,137.84,303.98"/>
				<g>
					<path class="st0" d="M226.26,45.63c4.77,0.41,9.44,1.99,13.98,4.66c-0.4-7.3-7.94-10.11-8.29-10.24l-10.46-3.1
						c-5.38-1.58-9.62-1.16-12.61,1.25c-4.41,3.56-5.29,10.64-5.42,14.53C207.22,49.82,215.5,44.7,226.26,45.63z"/>
					<path class="st0" d="M212.57,69.95c-2.18-0.34-7.03-0.81-12.48,0.34c1.34,2.08,5.3,5.56,12.94,10.38
						C213.32,77.56,213.5,72.59,212.57,69.95z"/>
					<path class="st0" d="M202.08,57.05l-8.97,4.14c-1.54,0.81-2.53,1.95-2.99,3.46c-0.7,2.29,0.04,4.89,0.63,6.39
						c8.33-4.74,17.25-4.33,21.36-3.79C211.24,63.9,205.89,59.47,202.08,57.05z"/>
					<path class="st0" d="M249.62,106.72c-11.49-2.34-33.23,9-33.45,9.12l-1.22-2.32c0.42-0.22,5.07-2.64,11.19-5.01
						c-14.74-5.33-33.35,18.08-34.22,19.19l-14,21.57h110.83C282.02,136.88,260.08,108.85,249.62,106.72z M202.97,134.98
						c0.39-1.97,6.9-10.53,9.68-14.12l2.07,1.6c-4.26,5.5-8.86,11.89-9.18,13.05L202.97,134.98z M216.11,136.48
						c0-0.04,0-0.08-0.01-0.1l-2.59,0.37c-0.16-1.11,1.39-5.71,4.61-13.69l2.43,0.98C218.4,129.35,216.16,135.46,216.11,136.48z
						 M225.73,136.56h-2.62v-13.77h2.62V136.56z M233.47,140.52h-2.62v-16.97h2.62V140.52z M240.63,135.88l-2.24,1.35
						c-1.85-3.09-0.47-12.12-0.17-13.9l2.58,0.43C240.13,127.79,239.64,134.22,240.63,135.88z M248.13,137.11
						c-1.33-2.85-4.8-12.71-4.95-13.13l2.47-0.87c0.04,0.1,3.58,10.15,4.85,12.89L248.13,137.11z M258.7,137.13
						c-2.91-5.99-10.3-14.52-10.37-14.61l1.97-1.72c0.31,0.36,7.69,8.88,10.75,15.19L258.7,137.13z"/>
					<path class="st0" d="M288.45,205.24l12.89-7.09l-27.43-9.14c-2.19-0.73-4.57-0.65-6.71,0.22l-16.38,6.65l17.75,9.11l-0.8,1.55
						l-3.26-1.67l-32.97,10.89l48.53,25.49l19.91-24.6c1.87-2.32,5.09-3.09,7.81-1.89l21.27,9.38v-39.25l-39.79,21.88L288.45,205.24
						z"/>
					<path class="st0" d="M301.36,217.74l-20.37,25.17l3.47,2.91l43.87-7.89l0.08-0.1l0.08,0.07l0.58-0.11v-11.75l-21.97-9.69
						C305.1,215.47,302.74,216.04,301.36,217.74z"/>
					<path class="st0" d="M171.42,232.28l0.22-1.73l52.07,6.58l-33.41-15.77l0.74-1.58l73.92,34.89l-0.7,1.49l15.34-13.19
						l-50.49-26.52h-22.13v-1.74h22.21l33.15-10.95l-33.71-17.3c-1.84-0.95-4.02-0.76-5.68,0.47l-35.78,26.66l-47.69-25.31v56.26
						l74.53-6.87L171.42,232.28z"/>
					<path class="st0" d="M227.91,315.9l5.09-6.51l14.43-15.28c0,0,9.05-5.09,11.74-3.96l-2.83-8.89c0,0,0.85-4.55,3.39-5.12
						c0,0,9.62-5.09,10.89-14.14l5.75-5.76h-12.15h-0.06l-11.63,10c0,0-7.92,4.54-7.64,11.82c0.28,7.28-15.56,18.29-15.56,18.29
						l-14.71,21.24l-1.7,12.2l-34.97,17.41l0.71,0.32h30.26c0.07,0.01,0.13,0.01,0.2,0.02c2.75,0.22,5.3,0.56,7.66,1.07
						c0.3,0.06,0.59,0.13,0.88,0.19c0.19,0.04,0.37,0.08,0.55,0.13c0.08,0.02,0.16,0.04,0.23,0.05c0.23,0.05,0.45,0.11,0.67,0.16
						c0.02,0,0.04,0.01,0.06,0.01c0.23,0.06,0.46,0.11,0.68,0.17l0.57-8.81C220.42,340.51,220.56,320.99,227.91,315.9z"/>
					<polygon class="st0" points="264.22,256.25 276.38,256.25 285.11,247.48 283.69,247.74 283.38,246.02 284.46,245.83 
						280.99,242.91 280.54,243.46 279.61,242.96 264.27,256.16 					"/>
					<polygon class="st0" points="264.16,256.25 264.22,256.25 264.18,256.23 					"/>
					<path class="st0" d="M175.96,187.21l-15.98,9.97l27.03,14.35l17.14-12.77l-23.07-11.77
						C179.46,186.16,177.5,186.24,175.96,187.21z"/>
					<polygon class="st0" points="264.18,256.23 264.22,256.25 264.27,256.16 					"/>
					<path class="st0" d="M332.24,149.27h-18.23h-22.32h-2.94H177.93h-3.12h-29.92h-8.57c-3.41,0-6.18,2.77-6.18,6.18v171.04
						c0,2.97,0.43,5.84,1.22,8.56c1.29,4.39,3.54,8.36,6.51,11.68l0.02,0.02l2.38,2.38l0.01,0.01c5.37,4.8,12.46,7.72,20.23,7.72
						h47.83c13.32,1.04,22.58,8.77,22.7,8.9l3.23,2.86l3.12-3.02c0.38-0.37,8.37-7.75,24.11-8.74h46.53
						c7.77,0,14.87-2.92,20.23-7.72l0.01-0.01l2.38-2.38l0.02-0.02c2.97-3.32,5.22-7.29,6.51-11.68c0.8-2.72,1.22-5.59,1.22-8.56
						V155.46C338.42,152.04,335.65,149.27,332.24,149.27z M329.08,171.01v12.89v1v39.25v1.91v11.75v1.87v8.93v7.65v66.8l-0.01,5.46
						c-1.23,9.56-8.52,17.22-17.89,19.02h-51.45c-0.07,0.01-0.13,0.01-0.2,0.02c-2.74,0.22-5.3,0.56-7.66,1.07
						c-5.38,1.16-9.34,3.44-12.55,5.43c-1.89,1.17-5.05,3.21-5.05,3.21s-5.7-3.89-6.55-4.48c-2.45-1.69-4.5-2.58-7.88-3.45
						c-0.22-0.06-0.45-0.11-0.68-0.17c-0.02,0-0.04-0.01-0.06-0.01c-0.22-0.05-0.44-0.11-0.67-0.16c-0.08-0.02-0.15-0.04-0.23-0.05
						c-0.18-0.04-0.36-0.08-0.55-0.13c-0.28-0.06-0.58-0.13-0.88-0.19c-2.36-0.51-4.92-0.85-7.66-1.07c-0.06,0-0.13-0.01-0.2-0.02
						h-30.26h-21.19c-9.37-1.79-16.66-9.46-17.89-19.02v-5.46h-0.01v-64.43h0.01v-0.7l-0.02-1.68l-0.08-7.65v-2.31v-1.75v-56.26
						v-0.99v-16.28v-12.39h5.41h169.12h15.07V171.01z"/>
				</g>
				<g>
					<path class="st0" d="M301.51,313.01c1.04,0.33,2.2,0.54,3.41,0.54c0.51,0,1.03-0.04,1.55-0.11c2.75-0.42,5.11-1.95,6.8-4.44
						l-2.42-1.65c-1.24,1.82-2.86,2.9-4.82,3.19c-1.32,0.2-2.68,0-3.83-0.39c1.45-4.38,3.96-5.82,4.12-5.91l-1.35-2.6
						c-0.21,0.11-3.4,1.85-5.3,6.92c-1.08-1.3-2.48-3.88-3.23-5.45l-2.65,1.26c0.27,0.56,2.65,5.51,4.62,7.08
						c0.11,0.09,0.24,0.18,0.37,0.26c-0.5,2.46-0.68,5.47-0.31,9.12c-4.58,1.6-5.97,11.25-5.97,11.25h15.2c0,0-1.89-9.19-6.27-11.12
						C301.07,317.78,301.16,315.15,301.51,313.01z"/>
				</g>
			</g>
		</g>
	</g>
</g>
</svg>
