<?xml version="1.0" encoding="utf-8"?>
<!-- Generator: Adobe Illustrator 24.1.3, SVG Export Plug-In . SVG Version: 6.00 Build 0)  -->
<svg version="1.1" id="Layer_1" xmlns="http://www.w3.org/2000/svg" xmlns:xlink="http://www.w3.org/1999/xlink" x="0px" y="0px"
	 viewBox="0 0 1920 719" style="enable-background:new 0 0 1920 719;" xml:space="preserve">
<style type="text/css">
	.st0{fill:#357234;}
	.st1{fill:#39B54A;}
	.st2{fill:#666666;}
	.st3{fill:#4D4D4D;stroke:#FF0000;stroke-width:2;stroke-miterlimit:10;}
	.st4{fill:#1A1A1A;}
	.st5{fill:#4D4D4D;}
	.st6{fill:#D19F47;}
	.st7{fill:none;}
	.st8{fill:#C1272D;}
	.st9{fill:#FBB03B;}
	.st10{fill:#F7931E;}
	.st11{fill:#95CEFC;}
	.st12{fill:#B3B3B3;}
	.st13{fill:#333333;}
	.st14{fill:#F4B8AE;}
	.st15{fill:#E6E6E6;}
	.st16{fill:#CCCCCC;}
	.st17{fill:#264653;}
</style>
<g>
	<g>
		<path class="st0" d="M452.36,356.77v-15.49l-0.84,0.15l-0.12-0.1l-0.12,0.14l-62.92,11.32l0,0l1.8,1.51l-3.53,3.54l-9.87,9.9
			l-8.24,8.27c-0.29,2.03-0.86,3.92-1.63,5.66c-0.62,1.4-1.36,2.7-2.17,3.91c-0.41,0.6-0.83,1.18-1.27,1.74
			c-0.22,0.28-0.44,0.55-0.67,0.81c-0.45,0.53-0.91,1.04-1.37,1.52c-1.38,1.44-2.79,2.66-4.05,3.65c-0.84,0.66-1.62,1.21-2.28,1.65
			c-1.32,0.89-2.18,1.34-2.18,1.34c-3.65,0.81-4.87,7.34-4.87,7.34l4.06,12.74l0,0l0,0c-0.36-0.15-0.8-0.23-1.31-0.23
			c-4.87-0.08-15.53,5.91-15.53,5.91l-20.69,21.91l-7.3,9.33c-1.32,0.91-2.48,2.15-3.49,3.61c-0.51,0.73-0.98,1.52-1.42,2.36
			c-2.2,4.17-3.57,9.47-4.42,14.42c-1.37,7.91-1.42,14.91-1.42,14.91l-0.82,12.64c4.85,1.24,7.79,2.52,11.3,4.94
			c1.22,0.84,9.4,6.42,9.4,6.42c0,0,4.53-2.92,7.24-4.6c1.15-0.71,2.37-1.45,3.67-2.19c1.3-0.73,2.68-1.46,4.16-2.16
			c1.48-0.69,3.06-1.35,4.75-1.93c1.69-0.59,3.49-1.1,5.42-1.52c3.39-0.73,7.05-1.22,10.98-1.53c0.09,0,0.19-0.01,0.29-0.02l0,0
			h73.79c1.68-0.32,3.31-0.77,4.89-1.35c1.58-0.57,3.09-1.27,4.54-2.07c8.69-4.82,14.91-13.57,16.22-23.85l0.01-5.22l0-2.61V356.77z
			"/>
		<path class="st1" d="M295.45,342.19l0.07,0.73l-115.08,10.62v3.31l0.14,13.39v1h-0.01v92.4h0.01v7.83
			c1.76,13.71,12.22,24.7,25.66,27.27h30.4l-1.01-0.46l50.15-24.97l2.43-17.5l21.1-30.46c0,0,22.72-15.79,22.31-26.23
			c-0.41-10.44,10.95-16.95,10.95-16.95l16.72-14.38l-50.75-23.95L295.45,342.19z"/>
		<g>
			<path class="st2" d="M87.98,389.21c-3.42,0.83-8.03,1.07-12.03-1.75c-2.26,0.9-6.68,2.27-10.62,1.26
				c-2.37,14.78-13.64,77.29-39.55,114.53l-14.78,49.82l24.36-34.78l0,0C48.51,500.02,80.35,410.87,87.98,389.21z"/>
			<path class="st2" d="M60.5,388.73c-2.66,0.67-6.21,1.12-9.29,0c-3.02,9.03-8.25,22.53-15.51,47.03
				c-9.31,31.67-11.31,41.66-24.79,73.63l12.1-10.51C46.8,463.36,57.91,404.25,60.5,388.73z"/>
			<path class="st2" d="M45.15,389.76c-3.92-0.16-7.84-0.56-10.64-1.19c0.37,1.74,1.98,4.33,1.24,12.66
				c-0.25,2.8-2.35,10.92-3.52,15.42c-1.16,4.5-3.23,8.89-3.65,11.22C37.48,420.16,43.32,401.9,45.15,389.76z"/>
			<path class="st2" d="M154.76,390.63c-0.19,0.01-0.56,0.03-1.06,0.03c-2.26,0-7.2-0.42-10.46-3.74c-1.87,0.76-4.21,1.39-6.64,1.55
				c-2.78,12.19-18.47,79.07-34.99,109.63l4.8,17.01c5.93-5.8,18.81-23.88,23.65-39.6c9.16-17.04,25.95-73.26,29.36-85.16
				C157.34,390.87,157.55,390.65,154.76,390.63z"/>
			<path class="st2" d="M93.25,388.57c-5.98,17.06-38.87,110.08-53.41,131.6l4.28,20.03l24.54-43.67
				c19.87-35.41,31.04-92.83,33.73-107.93C99.64,389.49,96.44,389.76,93.25,388.57z"/>
			<path class="st2" d="M127.2,385.57c-2.03,1.67-5.51,3.89-9.85,4.13c-3.41,0.19-6.69-0.87-9.78-3.13
				c-1.46,8.64-12.81,72.72-34.44,111.69l2.58,29.06c6-6.52,14.74-19.36,17.97-29.7l5.07-10.85c14.95-30.88,28.01-86.8,30.94-99.52
				C128.05,386.81,128.59,386.82,127.2,385.57z"/>
			<path class="st2" d="M142.08,382.24l18.91-45.64l-9.54-3.96c-3.72,6.19-16.46,28.33-21.5,48.94
				C133.61,385.51,139.93,383.2,142.08,382.24z"/>
			<path class="st2" d="M141.97,488.62c7.72-6.89,22.66-21.21,24.34-27.46l0.74,0.2v-71.74c-2.26,7.96-21.1,73.91-31.02,90.01
				L141.97,488.62z"/>
			<path class="st2" d="M146.66,383.61c2.66,2.68,7.75,2.28,7.8,2.28l0.23-0.01c0.1,0,0.2,0,0.3,0c7.94,0,10.27-2.46,10.39-3.78
				l1.66,0.05v-43.04l-1.66-0.69L146.66,383.61z"/>
			<path class="st2" d="M197.73,160.76c-12.76-10.94-46.67-39.99-81.06-1.21c-31.19,35.17-50.85,76.06-51.31,106.72
				c-0.11,7.54,0.7,14.5,2.53,21.51c0.73,2.8,1.63,5.61,2.71,8.47l1.48-3.14l51.12-108.41c0.34-0.72,1.43-0.26,1.14,0.49
				c-11.83,30.21-36.08,91.42-41.62,100.16c-5.35,8.44-9.53,12.03-9.53,12.03c-0.45,0.95,0.06,2.07,1.06,2.36l3.6,1.05
				c0,0,4.71-1.76,9.65-11.49c15.12-29.77,54.57-106.36,54.57-106.36L85.4,304.4c1.92,1.18,6.03,2.43,11.95,3.62l58.25-120.6
				l-52.44,122.95c1.79,0.89,3.71,1.55,7.38,2.49l55.26-121.02l-47.76,123.86c2.41,1.01,6.02,2.04,10.97,3.22l38.04-95.84
				c0,0.05-0.01,0.1-0.01,0.15c0-0.05,0.01-0.1,0.01-0.15c0,0,0,0,0,0c0.03-1.95,0.7-3.75,1.8-5.2c0,0,0,0,0,0
				c0.16-0.21,0.32-0.41,0.5-0.6c0,0,0,0,0,0c0,0,0,0,0,0c0,0,0,0,0,0l7.13-17.96c0.42-1.07,2.02-0.61,1.82,0.52l-2.68,14.54
				c0.1,0,0.19-0.01,0.29-0.01h13.15l2.23-6.26c0.47-1.31,2.4-1.03,2.47,0.36l0.34,5.91h28.37h5.82h11.17l-1.64-2.98l-1.76-3.11
				C235.88,207.97,216.67,176.99,197.73,160.76z"/>
			<path class="st2" d="M138.22,327.34c-0.4,0.59-0.92,1.36-1.51,2.26c-6.44,9.72-23.09,35.94-26.88,52.74
				c2.36,1.88,4.8,2.76,7.26,2.62c3.94-0.22,7.08-2.96,8.11-3.97c5.01-20.97,17.46-42.92,21.78-50.15l-3.1-1.24L138.22,327.34z"/>
			<path class="st2" d="M121.66,321.94c-0.81,1.63-2.13,4.3-3.76,7.65c-7.1,14.59-20.14,42.2-23.28,54.4
				c4.48,1.9,8.91-0.94,10.44-2.1c3.48-16.41,18.4-40.74,25.94-52.3c1.06-1.62,1.97-3,2.69-4.06l-3.93-1.57
				C127.45,323.45,124.51,322.74,121.66,321.94z"/>
			<path class="st2" d="M49.2,376.13c3.56-13.97,11.55-32.07,18.57-46.54c5.33-10.98,10.1-19.89,11.96-23.31l-8.6-2.52l-0.07-0.02
				c0,0.01-0.01,0.01-0.01,0.02c-2.07,3.82-4.4,2.46-8.81,15.15c-3.36,9.65-2.97,13.51-15.01,39.3c-2.56,5.49-0.61,4.01-4.36,12.12
				c-2.6,5.63-5,7.54-6,12.5c0.6,0.16,1.46,0.28,2.49,0.35C43.91,383.52,48.07,380.55,49.2,376.13z"/>
			<path class="st2" d="M73.09,329.59c-8.4,17.15-18.63,40.21-20.67,54.48c2.53,1.19,6.64,0.22,8.97-0.59
				c2.68-12.68,15.43-36.73,25.18-53.89c4.15-7.3,7.75-13.37,9.8-16.77c-6.45-1.34-10.32-2.72-12.63-3.96
				C81.96,312.16,77.81,319.95,73.09,329.59z"/>
			<path class="st2" d="M92.06,329.59c-9.66,16.87-23.12,41.82-25.94,54.4c2.43,0.82,6.03-0.18,8.1-0.98
				c2.54-10.94,17.36-36.87,27.26-53.42c3.14-5.25,5.79-9.57,7.39-12.15c-2.66-0.74-5.73-1.75-7.97-2.92
				C99.2,317.36,95.94,322.83,92.06,329.59z"/>
			<path class="st2" d="M107.01,329.59c-11.34,18.81-25.63,44.09-28.07,54.13c3.86,2.45,8.88,0.73,10.9-0.14
				c2.85-11.93,15.31-38.57,22.77-53.98c1.88-3.87,3.44-7.05,4.46-9.09c-1.38-0.49-2.6-0.99-3.57-1.5
				C111.55,322.13,109.34,325.73,107.01,329.59z"/>
			<path class="st2" d="M175.62,214.37c-0.62,0.02-1.22,0.1-1.81,0.25C174.4,214.48,175,214.39,175.62,214.37z"/>
			<path class="st2" d="M143.68,306.17c-1.62,5.75-7.65,14.1-7.65,14.1l10.63,4.06l29.25-84.92l-7.06-3.25
				C168.86,236.16,148.74,288.22,143.68,306.17z"/>
			<polygon class="st2" points="152.41,325.95 160.99,329.47 175.77,285.64 169.36,281.87 			"/>
		</g>
		<g>
			<path class="st2" d="M544.82,389.21c3.42,0.83,8.03,1.07,12.03-1.75c2.26,0.9,6.68,2.27,10.62,1.26
				c2.37,14.78,13.64,77.29,39.54,114.53l14.78,49.82l-24.36-34.78l0,0C584.3,500.02,552.46,410.87,544.82,389.21z"/>
			<path class="st2" d="M572.3,388.73c2.66,0.67,6.21,1.12,9.29,0c3.02,9.03,8.25,22.53,15.51,47.03
				c9.31,31.67,11.31,41.66,24.79,73.63l-12.1-10.51C586,463.36,574.9,404.25,572.3,388.73z"/>
			<path class="st2" d="M587.66,389.76c3.92-0.16,7.84-0.56,10.64-1.19c-0.37,1.74-1.98,4.33-1.24,12.66
				c0.25,2.8,2.35,10.92,3.52,15.42c1.16,4.5,3.23,8.89,3.65,11.22C595.32,420.16,589.48,401.9,587.66,389.76z"/>
			<path class="st2" d="M478.04,390.63c0.19,0.01,0.56,0.03,1.06,0.03c2.26,0,7.2-0.42,10.46-3.74c1.87,0.76,4.21,1.39,6.64,1.55
				c2.78,12.19,18.47,79.07,34.99,109.63l-4.8,17.01c-5.93-5.8-18.81-23.88-23.65-39.6c-9.16-17.04-25.95-73.26-29.36-85.16
				C475.46,390.87,475.25,390.65,478.04,390.63z"/>
			<path class="st2" d="M539.55,388.57c5.98,17.06,38.87,110.08,53.41,131.6l-4.28,20.03l-24.54-43.67
				c-19.87-35.41-31.04-92.83-33.73-107.93C533.16,389.49,536.36,389.76,539.55,388.57z"/>
			<path class="st2" d="M505.6,385.57c2.03,1.67,5.51,3.89,9.85,4.13c3.41,0.19,6.69-0.87,9.78-3.13
				c1.46,8.64,12.81,72.72,34.44,111.69l-2.58,29.06c-6-6.52-14.74-19.36-17.97-29.7l-5.07-10.85
				c-14.95-30.88-28.01-86.8-30.94-99.52C504.76,386.81,504.21,386.82,505.6,385.57z"/>
			<path class="st2" d="M490.72,382.24l-18.91-45.64l9.54-3.96c3.72,6.19,16.46,28.33,21.5,48.94
				C499.2,385.51,492.87,383.2,490.72,382.24z"/>
			<path class="st2" d="M490.83,488.62c-7.72-6.89-22.66-21.21-24.34-27.46l-0.74,0.2v-71.74c2.26,7.96,21.1,73.91,31.02,90.01
				L490.83,488.62z"/>
			<path class="st2" d="M486.14,383.61c-2.66,2.68-7.75,2.28-7.8,2.28l-0.23-0.01c-0.1,0-0.2,0-0.3,0c-7.94,0-10.27-2.46-10.39-3.78
				l-1.66,0.05v-43.04l1.66-0.69L486.14,383.61z"/>
			<path class="st2" d="M435.07,160.76c12.76-10.94,46.67-39.99,81.06-1.21c31.19,35.17,50.85,76.06,51.31,106.72
				c0.11,7.54-0.7,14.5-2.53,21.51c-0.73,2.8-1.63,5.61-2.71,8.47l-1.48-3.14L509.6,184.71c-0.34-0.72-1.43-0.26-1.14,0.49
				c11.83,30.21,36.08,91.42,41.62,100.16c5.35,8.44,9.53,12.03,9.53,12.03c0.45,0.95-0.06,2.07-1.06,2.36l-3.6,1.05
				c0,0-4.71-1.76-9.65-11.49c-15.12-29.77-54.57-106.36-54.57-106.36l56.67,121.46c-1.92,1.18-6.03,2.43-11.95,3.62l-58.25-120.6
				l52.44,122.95c-1.79,0.89-3.71,1.55-7.38,2.49L467,191.83l47.76,123.86c-2.41,1.01-6.02,2.04-10.97,3.22l-38.04-95.84
				c0,0.05,0.01,0.1,0.01,0.15c0-0.05-0.01-0.1-0.01-0.15c0,0,0,0,0,0c-0.03-1.95-0.7-3.75-1.8-5.2c0,0,0,0,0,0
				c-0.16-0.21-0.32-0.41-0.5-0.6c0,0,0,0,0,0c0,0,0,0,0,0c0,0,0,0,0,0l-7.13-17.96c-0.42-1.07-2.02-0.61-1.82,0.52l2.68,14.54
				c-0.1,0-0.19-0.01-0.29-0.01h-13.15l-2.23-6.26c-0.47-1.31-2.4-1.03-2.47,0.36l-0.34,5.91h-28.37h-5.82h-11.17l1.64-3.1
				l1.76-2.98C396.92,207.97,416.13,176.99,435.07,160.76z"/>
			<path class="st2" d="M494.58,327.34c0.4,0.59,0.92,1.36,1.51,2.26c6.44,9.72,23.09,35.94,26.88,52.74
				c-2.36,1.88-4.8,2.76-7.26,2.62c-3.94-0.22-7.08-2.96-8.11-3.97c-5.01-20.97-17.46-42.92-21.78-50.15l3.1-1.24L494.58,327.34z"/>
			<path class="st2" d="M511.14,321.94c0.81,1.63,2.13,4.3,3.76,7.65c7.1,14.59,20.14,42.2,23.28,54.4
				c-4.48,1.9-8.91-0.94-10.44-2.1c-3.48-16.41-18.4-40.74-25.94-52.3c-1.06-1.62-1.97-3-2.69-4.06l3.93-1.57
				C505.35,323.45,508.29,322.74,511.14,321.94z"/>
			<path class="st2" d="M583.6,376.13c-3.56-13.97-11.55-32.07-18.57-46.54c-5.33-10.98-10.1-19.89-11.96-23.31l8.6-2.52l0.07-0.02
				c0,0.01,0.01,0.01,0.01,0.02c2.07,3.82,4.4,2.46,8.81,15.15c3.36,9.65,2.98,13.51,15.01,39.3c2.56,5.49,0.61,4.01,4.36,12.12
				c2.6,5.63,5,7.54,6,12.5c-0.6,0.16-1.46,0.28-2.49,0.35C588.9,383.52,584.73,380.55,583.6,376.13z"/>
			<path class="st2" d="M559.71,329.59c8.4,17.15,18.63,40.21,20.67,54.48c-2.53,1.19-6.64,0.22-8.97-0.59
				c-2.68-12.68-15.43-36.73-25.18-53.89c-4.15-7.3-7.75-13.37-9.8-16.77c6.45-1.34,10.32-2.72,12.63-3.96
				C550.84,312.16,554.99,319.95,559.71,329.59z"/>
			<path class="st2" d="M540.74,329.59c9.66,16.87,23.12,41.82,25.94,54.4c-2.43,0.82-6.03-0.18-8.1-0.98
				c-2.54-10.94-17.36-36.87-27.26-53.42c-3.14-5.25-5.79-9.57-7.39-12.15c2.66-0.74,5.73-1.75,7.97-2.92
				C533.6,317.36,536.87,322.83,540.74,329.59z"/>
			<path class="st2" d="M525.79,329.59c11.34,18.81,25.63,44.09,28.07,54.13c-3.86,2.45-8.88,0.73-10.9-0.14
				c-2.85-11.93-15.31-38.57-22.77-53.98c-1.88-3.87-3.44-7.05-4.46-9.09c1.38-0.49,2.6-0.99,3.57-1.5
				C521.26,322.13,523.46,325.73,525.79,329.59z"/>
			<path class="st2" d="M457.18,214.37c0.62,0.02,1.22,0.1,1.81,0.25C458.41,214.48,457.8,214.39,457.18,214.37z"/>
			<path class="st2" d="M489.13,306.17c1.62,5.75,7.65,14.1,7.65,14.1l-10.63,4.06l-29.25-84.92l7.06-3.25
				C463.95,236.16,484.06,288.22,489.13,306.17z"/>
			<polygon class="st2" points="480.39,325.95 471.81,329.47 457.04,285.64 463.45,281.87 			"/>
		</g>
		<path class="st3" d="M390.16,214.33"/>
		<path class="st4" d="M361.82,661.76c0.86,1.66,1.92,3.74,2.53,5.13c0.69,1.54,3.04,5.95,8.01-0.3c1.42-1.78,2.41-3.93,2.97-5.34
			c-2.78-3.66-5.86-8.65-8.24-15.06C366.32,650.99,364.78,656.64,361.82,661.76z"/>
		<path class="st4" d="M338.05,665.57c0.21,0.57,0.41,1.08,0.58,1.45c0.69,1.54,3.79,6.77,6.72-0.66c0.44-1.11,0.73-2.42,0.92-3.44
			c-2.32-3.91-4.75-9.91-6.55-19.1C338.45,649.44,337.27,657.39,338.05,665.57z"/>
		<path class="st4" d="M257.02,661.81c0.59,1.38,1.5,3.22,2.73,4.77c4.98,6.25,7.33,1.85,8.01,0.3c0.7-1.56,1.95-4.02,2.86-5.75
			c-2.73-4.95-4.17-10.34-4.92-14.95C263.2,652.93,259.91,658.11,257.02,661.81z"/>
		<path class="st4" d="M293.07,643.82c-1.93,9.86-4.59,16.05-7.06,19.92c0.18,0.85,0.43,1.78,0.76,2.61
			c2.93,7.44,6.04,2.21,6.72,0.66c0.38-0.85,0.9-2.29,1.43-3.85C295.29,655.86,294.23,648.89,293.07,643.82z"/>
		<path class="st5" d="M245.13,602.83l0.07,0.22c0.02-0.09,0.04-0.17,0.06-0.26L245.13,602.83z"/>
		<path class="st5" d="M368.42,637.52l-0.1-0.47C368.36,637.2,368.38,637.37,368.42,637.52z"/>
		<path class="st5" d="M367.79,634.44L367.79,634.44l0.53,2.61C368.13,636.2,367.95,635.34,367.79,634.44z"/>
		<g>
			<path class="st0" d="M481.43,549.82c0.43-0.37,0.56-0.88,0.57-1.46c0.05-2.73,1.21-5.05,2.64-7.29c2.4-3.78,5.1-7.34,8.08-10.68
				c0.82-0.92,1.73-1.75,2.66-2.56c0.6-0.52,1.33-0.85,2.13-0.43c0.87,0.45,1.06,1.26,1,2.16c-0.02,0.31-0.05,0.62-0.09,0.92
				c-1.02,7.43-4.3,13.59-10.28,18.23c-1.34,1.04-2.68,2.23-4.32,2.61c-2.82,0.65-4.3,2.96-6.38,4.55
				c5.39-1.47,10.74-2.85,16.25-3.55c1.61-0.2,3.23-0.36,4.83,0.01c2.37,0.56,2.91,2.34,1.22,4.04c-0.65,0.65-1.37,1.26-2.14,1.75
				c-5.62,3.57-11.76,5.32-18.42,5.07c-3.01-0.11-6-0.53-8.62-2.23c-0.68-0.44-1.15-0.1-1.69,0.2c-2.28,1.29-4.57,2.56-6.95,3.66
				c-1.14,0.53-2.23,1.18-3.47,1.85c0.78,0.43,1.39,0.26,1.98,0.25c5.63-0.04,11.25,0.06,16.83,0.84c2.13,0.3,4.29,0.5,6.34,1.24
				c0.73,0.26,1.45,0.5,2.02,1.07c1.11,1.13,1.07,2.18-0.2,3.08c-0.37,0.26-0.82,0.42-1.23,0.62c-2.33,1.09-4.83,1.56-7.32,2.06
				c-6.95,1.38-13.77,1.14-20.43-1.59c-2.21-0.9-4.47-1.72-6.57-2.85c-1.42-0.77-2.74-0.8-4.18-0.32c-3.15,1.05-6.4,1.69-9.64,2.36
				c-0.43,0.09-0.99-0.03-1.51,0.62c1.23,0.34,2.26,0.64,3.29,0.92c4.62,1.26,9.13,2.82,13.56,4.63c0.93,0.38,1.86,0.78,2.62,1.44
				c1.55,1.34,1.39,2.74-0.45,3.6c-0.69,0.32-1.45,0.53-2.2,0.68c-3.91,0.8-7.82,0.67-11.7-0.2c-5.97-1.35-10.98-4.41-15.17-8.81
				c-1.05-1.11-2.09-1.55-3.62-1.47c-3.08,0.16-6.16-0.12-9.23-0.37c-0.57-0.05-1.19-0.37-1.83,0.16c0.64,0.64,1.44,0.9,2.17,1.27
				c5.23,2.66,10.15,5.83,14.95,9.19c0.82,0.57,1.64,1.17,2.1,2.1c0.67,1.36,0.39,2.13-1.01,2.75c-0.94,0.42-1.94,0.48-2.94,0.46
				c-4.56-0.12-8.85-1.33-12.76-3.63c-5.13-3.01-9.13-7.29-12.59-12.06c-1.1-1.52-2.24-2.43-4.18-2.76
				c-4.86-0.83-9.67-1.96-14.26-3.83c-1.3-0.53-2.5-1.21-3.58-2.08c-0.3-0.24-0.53-0.62-0.31-1.02c0.29-0.52,0.65-0.15,0.95,0.02
				c6.32,3.74,13.49,4.46,20.61,5.99c0.08-1.4,0.59-2.44,1.2-3.42c3.15-5.08,6.97-9.59,11.64-13.35c1.58-1.27,3.29-2.28,5.21-2.93
				c1.07-0.36,2.16-0.49,3.02,0.4c0.87,0.9,0.73,1.96,0.22,3.01c-0.2,0.42-0.37,0.85-0.6,1.25c-3.58,6.34-8.63,11.16-15,14.65
				c-0.41,0.23-1.1,0.15-1.17,1c5.2,0.83,10.39,1.3,15.63,1.29c1.11,0,1.83-0.31,2.05-1.58c0.14-0.8,0.64-1.56,1.06-2.29
				c3.48-5.96,7.59-11.42,12.81-15.98c2.26-1.97,4.67-3.8,7.57-4.76c1.11-0.37,2.28-0.48,3.21,0.56c0.9,1,0.49,2.03,0.06,3.02
				c-2.48,5.83-5.97,10.93-10.89,15c-2.4,1.99-5.06,3.62-8,5.49c0.71,0.03,1.01,0.07,1.3,0.04c4.75-0.49,9.45-1.31,14.07-2.54
				c1.71-0.45,3.46-0.79,5.06-1.59c0.52-0.26,1.23-0.44,1.12-1.26c-0.25-1.94,0.65-3.6,1.31-5.31c2.57-6.7,6.82-12.4,11.02-18.11
				c0.91-1.24,2.01-2.35,3.3-3.21c1.19-0.8,2.57-0.16,2.7,1.26c0.05,0.52-0.08,1.07-0.18,1.6c-1.41,7.96-4.84,14.9-10.45,20.74
				c-0.34,0.35-0.92,0.57-0.77,1.34c2.48-0.75,4.77-1.87,6.98-3.06c2.27-1.23,4.79-2.09,6.65-4.03c0.26-0.27,0.69-0.37,0.44-0.86
				c-1.1-2.12-0.35-4.25,0.12-6.3c1.45-6.25,3.61-12.27,6.21-18.13c0.72-1.61,1.55-3.2,2.81-4.48c1.03-1.05,2.11-0.85,2.74,0.47
				c0.24,0.49,0.31,1.02,0.3,1.57c-0.11,7.74-1.43,15.18-5.49,21.93c-0.35,0.58-0.87,1.1-0.85,1.99
				C477.6,553.1,479.52,551.46,481.43,549.82z"/>
			<path class="st0" d="M160.37,554.46c0.02-0.89-0.5-1.41-0.85-1.99c-4.06-6.76-5.38-14.19-5.49-21.93
				c-0.01-0.55,0.06-1.08,0.3-1.57c0.63-1.31,1.71-1.52,2.74-0.47c1.26,1.28,2.1,2.87,2.81,4.48c2.61,5.85,4.77,11.88,6.21,18.13
				c0.47,2.05,1.21,4.18,0.12,6.3c-0.25,0.49,0.18,0.6,0.44,0.86c1.86,1.94,4.38,2.8,6.65,4.03c2.21,1.19,4.5,2.31,6.98,3.06
				c0.15-0.76-0.43-0.98-0.77-1.34c-5.61-5.84-9.04-12.78-10.45-20.74c-0.09-0.53-0.22-1.08-0.18-1.6c0.13-1.41,1.51-2.06,2.7-1.26
				c1.29,0.87,2.38,1.97,3.3,3.21c4.21,5.71,8.45,11.4,11.02,18.11c0.66,1.71,1.56,3.37,1.31,5.31c-0.11,0.82,0.6,1,1.12,1.26
				c1.6,0.8,3.35,1.13,5.06,1.59c4.62,1.23,9.32,2.05,14.07,2.54c0.29,0.03,0.59-0.02,1.3-0.04c-2.95-1.88-5.6-3.5-8-5.49
				c-4.92-4.07-8.41-9.17-10.89-15c-0.42-1-0.84-2.02,0.06-3.02c0.93-1.04,2.09-0.92,3.21-0.56c2.91,0.96,5.32,2.79,7.57,4.76
				c5.21,4.55,9.33,10.02,12.81,15.98c0.43,0.73,0.93,1.49,1.06,2.29c0.22,1.27,0.94,1.58,2.05,1.58
				c5.24,0.02,10.43-0.46,15.63-1.29c-0.06-0.85-0.75-0.78-1.17-1c-6.36-3.49-11.42-8.32-15-14.65c-0.23-0.4-0.39-0.84-0.6-1.25
				c-0.51-1.05-0.65-2.1,0.22-3.01c0.87-0.89,1.95-0.77,3.02-0.4c1.92,0.65,3.63,1.66,5.21,2.93c4.67,3.76,8.49,8.26,11.64,13.35
				c0.61,0.98,1.11,2.02,1.2,3.42c7.11-1.53,14.28-2.25,20.61-5.99c0.3-0.18,0.66-0.55,0.95-0.02c0.22,0.4-0.01,0.78-0.31,1.02
				c-1.08,0.88-2.29,1.55-3.58,2.08c-4.59,1.87-9.4,3-14.26,3.83c-1.94,0.33-3.08,1.24-4.18,2.76c-3.46,4.77-7.46,9.05-12.59,12.06
				c-3.92,2.3-8.2,3.5-12.76,3.63c-1,0.03-2-0.04-2.94-0.46c-1.39-0.62-1.68-1.39-1.01-2.75c0.46-0.94,1.28-1.53,2.1-2.1
				c4.8-3.36,9.72-6.53,14.95-9.19c0.72-0.37,1.53-0.63,2.17-1.27c-0.64-0.53-1.26-0.21-1.83-0.16c-3.07,0.25-6.15,0.53-9.23,0.37
				c-1.52-0.08-2.56,0.37-3.62,1.47c-4.19,4.4-9.19,7.46-15.17,8.81c-3.88,0.88-7.79,1-11.7,0.2c-0.75-0.15-1.51-0.36-2.2-0.68
				c-1.84-0.86-1.99-2.25-0.45-3.6c0.77-0.67,1.7-1.06,2.62-1.44c4.43-1.81,8.94-3.38,13.56-4.63c1.03-0.28,2.06-0.57,3.29-0.92
				c-0.51-0.65-1.08-0.54-1.51-0.62c-3.24-0.67-6.49-1.31-9.64-2.36c-1.44-0.48-2.77-0.45-4.18,0.32c-2.1,1.13-4.36,1.95-6.57,2.85
				c-6.66,2.72-13.48,2.97-20.43,1.59c-2.49-0.5-4.99-0.97-7.32-2.06c-0.42-0.19-0.86-0.36-1.23-0.62c-1.27-0.9-1.32-1.95-0.2-3.08
				c0.57-0.57,1.29-0.81,2.02-1.07c2.05-0.73,4.21-0.94,6.34-1.24c5.59-0.78,11.21-0.88,16.83-0.84c0.59,0,1.2,0.18,1.98-0.25
				c-1.25-0.67-2.33-1.33-3.47-1.85c-2.38-1.1-4.67-2.37-6.95-3.66c-0.53-0.3-1.01-0.64-1.69-0.2c-2.62,1.69-5.61,2.11-8.62,2.23
				c-6.66,0.25-12.8-1.5-18.42-5.07c-0.77-0.49-1.5-1.1-2.14-1.75c-1.69-1.7-1.15-3.48,1.22-4.04c1.6-0.37,3.22-0.22,4.83-0.01
				c5.51,0.7,10.86,2.08,16.25,3.55c-2.08-1.59-3.55-3.9-6.38-4.55c-1.64-0.38-2.98-1.57-4.32-2.61
				c-5.98-4.64-9.25-10.8-10.28-18.23c-0.04-0.31-0.07-0.61-0.09-0.92c-0.06-0.9,0.13-1.71,1-2.16c0.8-0.41,1.53-0.08,2.13,0.43
				c0.93,0.81,1.84,1.64,2.66,2.56c2.98,3.34,5.68,6.9,8.08,10.68c1.42,2.24,2.59,4.56,2.64,7.29c0.01,0.57,0.14,1.09,0.57,1.46
				C156.22,551.46,158.13,553.1,160.37,554.46z"/>
			<path class="st2" d="M347.23,534.86l-3.68,0.76l9.3,45.06c1.3,0.24,2.63,0.5,3.99,0.77L347.23,534.86z"/>
			<path class="st2" d="M289.25,535.62l-3.68-0.76l-9.58,46.4c1.36-0.26,2.69-0.51,3.99-0.75L289.25,535.62z"/>
			<path class="st2" d="M365.88,505.89l-3.66,0.82c0.14,0.63,9.43,42.09,17.92,80.14c1.35,0.36,2.71,0.72,4.09,1.1
				C375.63,549.39,366.03,506.54,365.88,505.89z"/>
			<path class="st2" d="M316.4,528.99c6.72,9.14,16.13,24.1,15.06,28.75c-1,4.35-2.61,11.4-4.38,19.17
				c1.16,0.12,2.42,0.25,3.76,0.41c1.73-7.6,3.3-14.47,4.28-18.74c1.83-7.95-13.47-28.87-16.55-32.99l-2.16,1.62l0.84,0.63
				C316.97,528.21,316.68,528.6,316.4,528.99z"/>
			<path class="st2" d="M270.58,506.71l-3.66-0.82c-0.14,0.64-9.69,43.23-18.27,81.71c1.38-0.37,2.74-0.73,4.09-1.08
				C261.2,548.56,270.44,507.34,270.58,506.71z"/>
			<path class="st2" d="M301.34,557.74c-1.07-4.65,8.34-19.61,15.06-28.75c-0.28-0.39-0.57-0.78-0.84-1.14l0.84-0.63l-2.16-1.62
				c-3.08,4.11-18.38,25.04-16.55,32.99c0.98,4.26,2.54,11.11,4.27,18.69c1.34-0.15,2.59-0.28,3.76-0.39
				C303.94,569.12,302.34,562.09,301.34,557.74z"/>
		</g>
		<path class="st5" d="M264.51,636.89l0.5-2.44l-0.01,0C264.86,635.28,264.69,636.08,264.51,636.89z"/>
		<path class="st2" d="M395.09,636.8c-0.2-0.93-0.42-1.91-0.65-2.93c-0.2-0.07-0.38-0.12-0.58-0.19c-1.2-0.41-2.39-0.8-3.57-1.19
			c0.4,1.83,0.78,3.54,1.13,5.11c1.63,7.39-1.12,16.43-8.18,26.88c-3.34-3.19-11.42-12.15-14.84-26.97
			c-0.04-0.15-0.06-0.32-0.1-0.47l-0.54-2.6l-1.88-9.09c-1.37-0.35-2.72-0.68-4.04-1l2.21,10.71c0.08,2.01,0.5,20.75-10.29,30.95
			c-2.33-1.68-8.8-8.29-11.68-31.08l-0.94-7.47l-2.67,7.03c-0.24,0.62-5.29,14.13-4.37,29.37c-6.67-6.25-20.04-22.19-12.85-44.49
			l0.04-0.16c0.01-0.05,0.13-0.6,0.34-1.52c-1.65-0.12-2.92-0.18-3.8-0.21c-0.09,0.4-0.16,0.69-0.18,0.81
			c-0.54,1.69-0.95,3.33-1.28,4.95c-0.33-1.62-0.74-3.27-1.28-4.95c-0.03-0.13-0.09-0.41-0.18-0.82c-0.88,0.03-2.16,0.09-3.8,0.2
			c0.21,0.93,0.34,1.48,0.35,1.53l0.04,0.16c7.19,22.31-6.18,38.24-12.85,44.49c0.92-15.24-4.13-28.75-4.37-29.37l-2.67-7.03
			l-0.94,7.47c-2.88,22.85-9.38,29.43-11.67,31.08c-10.8-10.21-10.37-28.97-10.3-30.96l2.26-10.97c-1.32,0.31-2.67,0.63-4.03,0.97
			l-1.94,9.38l-0.5,2.44l-0.13,0.65c-3.42,14.81-11.49,23.77-14.83,26.95c-7.06-10.45-9.81-19.48-8.18-26.88
			c0.38-1.7,0.79-3.56,1.23-5.56c-1.37,0.45-2.75,0.91-4.15,1.38c-0.26,1.18-0.51,2.31-0.74,3.37c-1.96,8.87,1.4,19.5,9.97,31.58
			l1.13,1.59l1.55-1.19c0.26-0.2,3.18-2.5,6.67-6.97c2.89-3.7,6.18-8.88,8.68-15.63c0.74,4.62,2.19,10,4.92,14.95
			c1.73,3.14,3.98,6.12,6.92,8.6l0.79,0.67l0.98-0.31c0.58-0.18,3.49-1.3,6.7-6.35c2.47-3.88,5.13-10.06,7.06-19.92
			c1.15,5.07,2.22,12.03,1.85,19.35c-0.08,1.61-0.21,3.23-0.44,4.86l-0.64,4.38l3.59-2.59c0.21-0.15,15.14-11.18,18.97-29.44
			c3.83,18.26,18.76,29.3,18.97,29.44l3.59,2.59l-0.64-4.38c-0.12-0.82-0.2-1.65-0.27-2.47c-0.78-8.18,0.4-16.13,1.68-21.75
			c1.8,9.18,4.23,15.18,6.55,19.1c3.42,5.76,6.6,6.99,7.21,7.18l0.98,0.31l0.79-0.67c2.74-2.32,4.88-5.07,6.57-7.98
			c2.96-5.12,4.49-10.77,5.27-15.58c2.38,6.4,5.46,11.4,8.24,15.06c3.69,4.85,6.84,7.33,7.11,7.54l1.55,1.19l1.13-1.59
			C393.7,656.3,397.05,645.67,395.09,636.8z"/>
		<path class="st5" d="M316.4,528.99c0.28-0.39,0.57-0.78,0.84-1.14l-0.84-0.63l-0.84,0.63C315.83,528.21,316.12,528.6,316.4,528.99
			z"/>
		<polygon class="st5" points="357.29,603.21 357.52,603.26 357.4,602.7 		"/>
		<g>
			<path class="st6" d="M290.71,603.03c0.36,0.69,0.83,1.18,1.39,1.47c0.57,0.29,1.23,0.39,1.98,0.29s1.36-0.36,1.82-0.79
				c0.46-0.43,0.78-1.02,0.95-1.78c0.17-0.76,0.19-1.66,0.05-2.72c-0.14-1.07-0.39-1.94-0.76-2.62c-0.36-0.68-0.82-1.17-1.38-1.46
				c-0.56-0.29-1.21-0.39-1.97-0.29s-1.37,0.37-1.84,0.8c-0.47,0.43-0.79,1.02-0.96,1.77c-0.17,0.75-0.19,1.66-0.05,2.73
				C290.09,601.48,290.34,602.35,290.71,603.03z"/>
			<polygon class="st6" points="430.88,618.19 434.54,616.99 430.75,611.56 			"/>
			<polygon class="st6" points="216.15,620.81 219.95,620.15 216.95,614.23 			"/>
			<path class="st6" d="M400.23,592.71c-5.53-1.77-10.86-3.35-15.99-4.76c-1.38-0.38-2.74-0.75-4.09-1.1
				c-8.44-2.23-16.24-3.99-23.3-5.39c-1.36-0.27-2.69-0.53-3.99-0.77c-8.75-1.64-16.19-2.69-22.01-3.36
				c-1.34-0.15-2.59-0.29-3.76-0.41c-6.87-0.69-10.69-0.78-10.69-0.78s-3.83,0.09-10.69,0.75c-1.17,0.11-2.42,0.24-3.76,0.39
				c-5.83,0.65-13.26,1.67-21.97,3.24c-1.3,0.24-2.63,0.49-3.99,0.75c-7.06,1.36-14.86,3.08-23.26,5.25
				c-1.35,0.35-2.71,0.71-4.09,1.08c-5.55,1.5-11.33,3.19-17.32,5.11c-49.8,15.96-59.91-5.14-59.91-5.14v40.16
				c0,0,18.66,22.18,66.26,5.95c0.26-0.09,0.51-0.17,0.77-0.26c1.4-0.47,2.78-0.93,4.15-1.38c8.76-2.85,16.9-5.14,24.35-6.98
				c1.37-0.34,2.71-0.66,4.03-0.97c19.06-4.47,33.05-5.92,40.14-6.39c1.64-0.11,2.92-0.17,3.8-0.2c0.96-0.03,1.46-0.03,1.46-0.03
				s0.5,0,1.47,0.03c0.88,0.03,2.15,0.09,3.8,0.21c7.06,0.5,20.99,2.02,40.2,6.65c1.32,0.32,2.67,0.65,4.04,1
				c7.44,1.89,15.59,4.23,24.39,7.14c1.18,0.39,2.37,0.78,3.57,1.19c0.2,0.07,0.38,0.12,0.58,0.19
				c47.17,15.85,65.68-6.14,65.68-6.14v-40.16C460.13,587.58,450.02,608.67,400.23,592.71z M205.14,628.22l-11.87-1.44l1.88-15.57
				l4.06,0.49l-1.5,12.43l7.81,0.95L205.14,628.22z M222.87,626.05l-1.69-3.3l-5.29,0.93l-0.49,3.68l-4.05,0.71l2.72-16.4l4.82-0.85
				l8.12,14.5L222.87,626.05z M251.51,615.81c-0.81,1.4-2.32,2.43-4.53,3.11c-0.54,0.16-1.06,0.29-1.55,0.37
				c-1.45,0.24-2.7,0.11-3.76-0.36c-0.05-0.02-0.12-0.03-0.17-0.06c-1.46-0.71-2.51-2.12-3.16-4.24l-2.71-8.89l3.93-1.2l2.73,8.96
				c0.11,0.35,0.24,0.65,0.38,0.93c0.29,0.57,0.63,1.01,1.05,1.27c0.62,0.39,1.4,0.44,2.32,0.16c0.06-0.02,0.11-0.04,0.16-0.06
				c0.84-0.29,1.41-0.74,1.7-1.37c0.3-0.67,0.29-1.54-0.04-2.62l-0.44-1.45l-2.22-7.28l-0.07-0.22l0.13-0.04l3.78-1.15l0.18,0.6
				l2.53,8.28C252.4,612.65,252.32,614.41,251.51,615.81z M291.44,586.9l3.58-0.48l-1.59,4.12l-2.92,0.39L291.44,586.9z
				 M269.56,612.45l-1.5,0.38l-6.81-7.03l-1.72-1.97l-0.02,0.01l0.8,2.79l1.94,7.67l-3.5,0.89l-3.85-15.21l4.4-1.11l6.81,7.03
				l1.72,1.97l0.02-0.01l-0.8-2.79l-1.94-7.67l3.5-0.89l2.33,9.21l1.52,5.99L269.56,612.45z M278,610.57l-2.08-10.38l-1-5l2.12-0.43
				l1.88-0.38l3.08,15.38L278,610.57z M300.7,603.38c-0.45,1.28-1.21,2.31-2.26,3.09c-1.05,0.79-2.37,1.29-3.94,1.49
				c-1.57,0.21-2.97,0.07-4.2-0.41c-1.23-0.48-2.23-1.28-3-2.39c-0.77-1.11-1.27-2.51-1.49-4.19s-0.11-3.16,0.35-4.43
				c0.45-1.28,1.21-2.31,2.27-3.1c1.06-0.79,2.38-1.29,3.95-1.5c1.57-0.21,2.97-0.07,4.19,0.41c1.22,0.48,2.22,1.28,2.99,2.4
				c0.77,1.11,1.27,2.51,1.49,4.19C301.27,600.63,301.16,602.11,300.7,603.38z M320.44,606.15l-4.03,0.06l-5-8.41l-1.22-2.31h-0.02
				l0.06,1.3l0.08,1.6l0.12,7.91l-1.87,0.03l-1.74,0.03l-0.12-8.21l-0.11-7.47l2.25-0.03l2.28-0.03l5,8.41l1.22,2.31h0.02l-0.14-2.9
				l-0.12-7.91l3.61-0.05l0.2,13.57l0.03,2.11L320.44,606.15z M346.77,610.44l-11.74-2.24l2.93-15.41l4.02,0.76l-2.34,12.3
				l7.73,1.47L346.77,610.44z M365.91,601.89l-5.09-1.14l-2.84-0.64l-0.58,2.6l0.12,0.56l4.02,0.9l2.06,0.46l-0.65,2.9l-0.75-0.17
				l-4.02-0.9l-1.54-0.35l-0.7,3.13l2.96,0.66l4.02,0.9l1.26,0.28l-0.62,2.78l-0.07,0.31l-3.88-0.87l-8.34-1.88l3.44-15.3l1.42,0.32
				l4.02,0.9l6.48,1.46L365.91,601.89z M384.17,604.92l-0.29,1.24l-4.97-1.18l-2.9,12.19l-3.98-0.94l2.9-12.19l-4.99-1.19l0.73-3.08
				l13.05,3.1l0.89,0.21L384.17,604.92z M390.52,616.17l-0.98,4.19l-2.04-0.48l-1.94-0.46l0.95-4.03l1.97-8.41l0.66-2.83l3.98,0.93
				L390.52,616.17z M400.09,617.47c0.11,0.77,0.4,1.39,0.86,1.86c0.46,0.47,1.08,0.79,1.87,0.96c0.74,0.16,1.42,0.09,2.03-0.21
				c0.61-0.3,1.09-0.86,1.46-1.67l3.41,1.8c-0.52,1.01-1.18,1.79-1.98,2.34c-0.8,0.55-1.68,0.89-2.65,1.02
				c-0.97,0.13-1.99,0.07-3.08-0.16c-1.55-0.33-2.82-0.93-3.82-1.8c-1-0.87-1.67-1.96-2.03-3.26c-0.35-1.31-0.35-2.79,0-4.45
				c0.35-1.66,0.96-3.01,1.81-4.06c0.86-1.05,1.92-1.77,3.18-2.15c1.26-0.39,2.66-0.42,4.2-0.09c1.07,0.23,2.02,0.59,2.85,1.08
				c0.83,0.49,1.5,1.12,1.98,1.87c0.49,0.75,0.76,1.64,0.81,2.68l-3.81,0.67c-0.01-1.01-0.22-1.74-0.64-2.2
				c-0.41-0.46-0.99-0.77-1.73-0.93c-0.73-0.16-1.4-0.11-2.01,0.13c-0.61,0.24-1.13,0.69-1.57,1.33s-0.77,1.49-0.99,2.55
				C400.03,615.8,399.98,616.7,400.09,617.47z M418.31,625.96l-4.06-0.51l1.94-15.56l4.06,0.51L418.31,625.96z M438.27,622.43
				l-2.14-3.03l-5.11,1.67l0.04,3.71l-3.91,1.28l0.37-16.62l4.65-1.52l10.09,13.21L438.27,622.43z"/>
			<g>
				<path class="st6" d="M86.79,635.27c-0.27-0.24-0.6-0.39-0.97-0.46c-0.38-0.06-0.77-0.03-1.18,0.09
					c-0.65,0.2-1.11,0.54-1.39,1.03c-0.27,0.48-0.31,1.06-0.1,1.72c0.19,0.6,0.53,1.02,1.03,1.23c0.5,0.22,1.07,0.23,1.7,0.03
					c0.41-0.13,0.75-0.32,1.02-0.59c0.27-0.27,0.46-0.58,0.54-0.93c0.09-0.35,0.07-0.73-0.05-1.14
					C87.27,635.84,87.07,635.5,86.79,635.27z"/>
				<path class="st6" d="M177.53,572.89c0,0-57.94,47.38-171.94,66.73v39.5c0,0,111.36-18.12,165.82-59.91v-31.64
					C169.15,581.9,177.53,572.89,177.53,572.89z M74.11,651.35l-2.47-8.69c-0.11-0.4-0.22-0.8-0.33-1.23
					c-0.11-0.42-0.23-0.85-0.36-1.29c-0.37,0.6-0.82,1.16-1.33,1.67c-0.51,0.52-1.09,0.93-1.72,1.24l-1.29-3.14
					c0.39-0.14,0.78-0.36,1.18-0.66c0.4-0.29,0.79-0.63,1.16-1c0.37-0.37,0.69-0.74,0.97-1.13c0.27-0.38,0.46-0.74,0.56-1.06
					l3.13-0.89l4.28,15.09L74.11,651.35z M92.93,642.32c-0.18,1.31-0.66,2.38-1.43,3.21c-0.77,0.83-1.77,1.43-3,1.81
					c-1.3,0.4-2.51,0.49-3.64,0.27c-1.12-0.22-2.09-0.83-2.92-1.82l3.07-2.47c0.28,0.49,0.64,0.84,1.08,1.03
					c0.43,0.2,0.95,0.2,1.56,0.01c0.47-0.15,0.85-0.37,1.14-0.66c0.29-0.3,0.49-0.66,0.59-1.09c0.11-0.43,0.13-0.92,0.07-1.48
					s-0.19-1.17-0.4-1.85c-0.02-0.06-0.04-0.12-0.05-0.17c-0.02-0.05-0.04-0.12-0.06-0.19l-0.07,0.02
					c-0.03,0.51-0.18,0.96-0.47,1.37c-0.29,0.4-0.65,0.75-1.09,1.05c-0.44,0.29-0.92,0.52-1.43,0.68c-0.94,0.29-1.83,0.36-2.69,0.2
					c-0.85-0.16-1.59-0.53-2.22-1.1c-0.63-0.58-1.09-1.33-1.38-2.27c-0.33-1.07-0.38-2.07-0.14-2.98c0.24-0.91,0.72-1.71,1.44-2.4
					c0.72-0.69,1.66-1.21,2.81-1.57c1.38-0.43,2.62-0.49,3.73-0.2c1.11,0.29,2.08,0.93,2.9,1.92c0.82,0.99,1.49,2.32,2.02,4
					C92.92,639.45,93.11,641.01,92.93,642.32z M108.85,638.15c-0.25,0.84-0.72,1.6-1.43,2.26c-0.71,0.66-1.59,1.18-2.65,1.56
					c-1.58,0.56-3.01,0.72-4.28,0.47c-1.27-0.25-2.32-0.9-3.15-1.95l3-2.78c0.27,0.51,0.56,0.89,0.87,1.14
					c0.32,0.25,0.67,0.39,1.06,0.41c0.39,0.02,0.82-0.05,1.29-0.22c0.42-0.15,0.75-0.34,0.99-0.59c0.24-0.25,0.4-0.53,0.47-0.86
					c0.07-0.33,0.04-0.68-0.1-1.05c-0.14-0.39-0.33-0.67-0.57-0.86c-0.24-0.18-0.53-0.28-0.86-0.28s-0.7,0.07-1.12,0.22
					c-0.19,0.07-0.37,0.14-0.53,0.2c-0.16,0.07-0.34,0.15-0.54,0.26l-0.89-2.51c0.12-0.03,0.25-0.06,0.37-0.09
					c0.12-0.03,0.27-0.08,0.43-0.14c0.7-0.25,1.15-0.57,1.36-0.97c0.2-0.4,0.19-0.91-0.03-1.54c-0.19-0.54-0.49-0.89-0.9-1.07
					c-0.41-0.17-0.89-0.16-1.44,0.03c-0.58,0.21-1.01,0.53-1.27,0.97s-0.32,1.04-0.16,1.81l-3.8,0.03c-0.13-0.88-0.02-1.7,0.32-2.46
					c0.34-0.76,0.86-1.43,1.57-2.02c0.71-0.59,1.56-1.05,2.54-1.4c1.13-0.4,2.15-0.58,3.04-0.52c0.89,0.05,1.65,0.32,2.27,0.78
					s1.08,1.12,1.37,1.94c0.23,0.64,0.32,1.22,0.27,1.72c-0.05,0.5-0.18,0.95-0.39,1.32c-0.21,0.38-0.45,0.69-0.72,0.92
					c-0.27,0.24-0.5,0.41-0.7,0.51l0.02,0.07c0.27-0.09,0.59-0.15,0.97-0.17c0.38-0.02,0.78,0.03,1.19,0.15
					c0.41,0.11,0.8,0.34,1.15,0.66c0.36,0.33,0.64,0.79,0.86,1.39C109.06,636.42,109.1,637.3,108.85,638.15z M125.25,631.07
					c-0.14,0.91-0.52,1.74-1.14,2.48c-0.63,0.74-1.49,1.35-2.59,1.84c-1.23,0.54-2.44,0.74-3.61,0.61
					c-1.18-0.13-2.26-0.63-3.25-1.48c-0.99-0.86-1.83-2.08-2.53-3.68c-0.75-1.71-1.08-3.24-1-4.6c0.08-1.35,0.48-2.51,1.21-3.49
					c0.72-0.97,1.69-1.73,2.89-2.25c0.77-0.34,1.53-0.55,2.28-0.64c0.75-0.09,1.47-0.01,2.17,0.24c0.7,0.25,1.34,0.71,1.93,1.39
					l-2.42,2.77c-0.37-0.44-0.8-0.74-1.28-0.88c-0.49-0.14-1.03-0.08-1.62,0.18c-0.41,0.18-0.74,0.44-0.99,0.79
					s-0.43,0.75-0.51,1.22c-0.09,0.47-0.08,1,0.03,1.57c0.11,0.58,0.3,1.19,0.59,1.84c0.02,0.04,0.04,0.09,0.06,0.14
					c0.02,0.05,0.05,0.12,0.09,0.21l0.1,0.11c-0.02-0.51,0.1-1,0.33-1.46c0.24-0.46,0.56-0.87,0.97-1.24
					c0.41-0.37,0.85-0.66,1.33-0.87c0.89-0.39,1.75-0.56,2.6-0.52c0.85,0.04,1.61,0.3,2.3,0.77c0.68,0.47,1.22,1.16,1.62,2.08
					C125.23,629.2,125.38,630.15,125.25,631.07z"/>
				<path class="st6" d="M120.73,628.87c-0.28-0.21-0.61-0.33-0.97-0.35c-0.36-0.02-0.77,0.07-1.22,0.26
					c-0.38,0.16-0.69,0.39-0.93,0.68c-0.25,0.29-0.39,0.62-0.45,0.99c-0.05,0.37,0,0.75,0.18,1.14c0.16,0.38,0.41,0.67,0.72,0.88
					c0.32,0.21,0.66,0.32,1.04,0.35s0.75-0.04,1.13-0.21c0.65-0.29,1.08-0.67,1.29-1.16c0.21-0.49,0.18-1.04-0.09-1.65
					C121.24,629.4,121.01,629.09,120.73,628.87z"/>
			</g>
			<g>
				<path class="st6" d="M534.05,630.85c-0.26-0.29-0.58-0.51-0.98-0.66c-0.64-0.25-1.21-0.27-1.72-0.06
					c-0.51,0.21-0.9,0.64-1.15,1.29c-0.23,0.59-0.22,1.13,0.04,1.61c0.26,0.48,0.69,0.84,1.31,1.08c0.4,0.16,0.79,0.21,1.17,0.17
					c0.38-0.04,0.72-0.17,1-0.39c0.29-0.22,0.51-0.53,0.67-0.93c0.16-0.41,0.21-0.8,0.14-1.16
					C534.47,631.46,534.31,631.14,534.05,630.85z"/>
				<path class="st6" d="M560.54,649.09c0.11,0.36,0.31,0.67,0.59,0.92c0.27,0.26,0.61,0.44,1.01,0.55
					c0.69,0.19,1.27,0.16,1.74-0.09c0.47-0.25,0.79-0.7,0.97-1.34c0.12-0.43,0.13-0.81,0.05-1.16c-0.09-0.34-0.27-0.64-0.53-0.89
					c-0.27-0.25-0.64-0.43-1.12-0.56c-0.4-0.11-0.78-0.13-1.15-0.06c-0.37,0.07-0.7,0.23-0.97,0.49c-0.27,0.25-0.47,0.59-0.58,1
					C560.42,648.35,560.42,648.73,560.54,649.09z"/>
				<path class="st6" d="M454.73,573.38c0,0,7.66,8.52,5.4,14.2v31.64c54.46,41.79,165.82,59.91,165.82,59.91v-39.5
					C511.96,620.28,454.73,573.38,454.73,573.38z M514.56,636.52l3.46-8.34c0.16-0.38,0.32-0.77,0.5-1.17
					c0.17-0.4,0.35-0.81,0.53-1.23c-0.66,0.24-1.36,0.4-2.08,0.49c-0.72,0.09-1.43,0.05-2.12-0.1l0.94-3.26
					c0.39,0.13,0.84,0.2,1.34,0.22c0.5,0.02,1.01,0,1.53-0.06c0.52-0.06,1.01-0.15,1.46-0.28c0.45-0.13,0.82-0.29,1.1-0.48
					l3.01,1.25l-6.01,14.49L514.56,636.52z M537.42,637.13c-0.69,1.77-1.51,3.11-2.47,4.03s-1.99,1.45-3.11,1.62
					c-1.12,0.17-2.28,0.02-3.47-0.44c-1.27-0.49-2.28-1.18-3.02-2.05c-0.74-0.87-1.13-1.95-1.15-3.24l3.94-0.03
					c-0.08,0.56-0.01,1.06,0.2,1.48c0.22,0.42,0.62,0.75,1.21,0.98c0.46,0.18,0.89,0.24,1.3,0.19c0.41-0.05,0.79-0.21,1.14-0.49
					c0.35-0.27,0.68-0.64,0.98-1.11c0.3-0.47,0.58-1.04,0.84-1.7c0.02-0.06,0.05-0.11,0.06-0.17c0.02-0.05,0.04-0.11,0.07-0.19
					l-0.07-0.03c-0.33,0.38-0.74,0.64-1.22,0.78c-0.48,0.14-0.98,0.18-1.51,0.14c-0.53-0.04-1.04-0.16-1.55-0.36
					c-0.92-0.36-1.66-0.86-2.23-1.51c-0.57-0.65-0.92-1.4-1.05-2.24c-0.13-0.84-0.02-1.72,0.33-2.64c0.41-1.05,0.99-1.86,1.74-2.42
					c0.75-0.57,1.63-0.89,2.63-0.98c0.99-0.09,2.05,0.08,3.18,0.52c1.34,0.52,2.36,1.24,3.05,2.16c0.69,0.92,1.05,2.02,1.07,3.31
					C538.36,634.02,538.06,635.49,537.42,637.13z M553.44,638.82c-0.22,0.64-0.51,1.15-0.86,1.51c-0.35,0.36-0.73,0.63-1.13,0.79
					c-0.4,0.16-0.78,0.26-1.14,0.27c-0.36,0.02-0.65,0.01-0.87-0.04l-0.02,0.07c0.27,0.09,0.56,0.25,0.87,0.48
					c0.31,0.22,0.59,0.51,0.84,0.86c0.25,0.35,0.41,0.76,0.49,1.24c0.08,0.48,0.01,1.02-0.2,1.62c-0.32,0.93-0.84,1.65-1.56,2.15
					c-0.72,0.5-1.56,0.8-2.53,0.87c-0.97,0.08-1.98-0.07-3.04-0.44c-1.59-0.55-2.8-1.32-3.64-2.31c-0.84-0.99-1.25-2.15-1.24-3.49
					l4.08-0.3c-0.11,0.56-0.12,1.04-0.03,1.44c0.09,0.39,0.28,0.72,0.58,0.98c0.29,0.26,0.67,0.47,1.14,0.63
					c0.42,0.15,0.8,0.2,1.14,0.16c0.34-0.04,0.64-0.17,0.9-0.38c0.26-0.21,0.45-0.51,0.58-0.88c0.13-0.39,0.16-0.73,0.09-1.02
					c-0.07-0.29-0.24-0.54-0.49-0.75c-0.26-0.21-0.59-0.38-1.01-0.53c-0.19-0.07-0.38-0.13-0.54-0.17c-0.17-0.05-0.36-0.1-0.58-0.14
					l0.87-2.52c0.11,0.06,0.23,0.11,0.35,0.16c0.12,0.05,0.26,0.1,0.42,0.16c0.7,0.24,1.26,0.27,1.67,0.09
					c0.41-0.19,0.72-0.59,0.94-1.22c0.19-0.54,0.18-1-0.03-1.4c-0.21-0.39-0.59-0.68-1.14-0.87c-0.58-0.2-1.12-0.21-1.6-0.04
					c-0.48,0.18-0.9,0.62-1.26,1.31l-2.99-2.34c0.45-0.77,1.04-1.34,1.78-1.72c0.74-0.38,1.56-0.58,2.48-0.6
					c0.92-0.02,1.87,0.15,2.86,0.49c1.14,0.39,2.04,0.89,2.7,1.49c0.66,0.6,1.09,1.28,1.28,2.03
					C553.78,637.21,553.73,638,553.44,638.82z M560.56,645.23c0.31-0.41,0.7-0.72,1.18-0.92c0.48-0.21,0.99-0.32,1.54-0.36
					c0.55-0.03,1.08,0.02,1.58,0.16c0.93,0.26,1.72,0.67,2.35,1.23c0.63,0.57,1.07,1.25,1.3,2.04c0.23,0.8,0.22,1.67-0.04,2.64
					c-0.28,1.04-0.77,1.87-1.45,2.5c-0.68,0.63-1.5,1.03-2.45,1.22c-0.95,0.18-2.01,0.11-3.17-0.2c-1.3-0.36-2.36-0.95-3.19-1.8
					c-0.83-0.84-1.36-1.91-1.59-3.19c-0.23-1.29-0.12-2.77,0.34-4.45c0.49-1.8,1.2-3.2,2.11-4.2c0.91-1,1.96-1.65,3.13-1.95
					c1.18-0.3,2.4-0.28,3.67,0.07c0.81,0.22,1.53,0.53,2.17,0.94c0.64,0.4,1.15,0.92,1.53,1.55c0.38,0.63,0.59,1.39,0.63,2.29
					l-3.62,0.64c-0.01-0.58-0.16-1.07-0.44-1.49c-0.29-0.42-0.75-0.71-1.37-0.88c-0.43-0.12-0.85-0.12-1.27-0.01
					c-0.42,0.11-0.81,0.32-1.17,0.63c-0.36,0.31-0.69,0.72-0.97,1.24c-0.28,0.51-0.51,1.12-0.7,1.8c-0.01,0.05-0.03,0.1-0.04,0.15
					c-0.01,0.05-0.04,0.13-0.06,0.22L560.56,645.23z"/>
			</g>
		</g>
		<g>
			<path class="st7" d="M322.05,177.12c-0.43,2.55-2.41,15.51,0.24,19.94l3.22-1.93c-1.43-2.39-0.72-11.6,0.24-17.39L322.05,177.12z
				"/>
			<rect x="311.48" y="177.43" class="st7" width="3.75" height="24.34"/>
			<path class="st7" d="M348.04,403.63l4.06,12.74l0,0L348.04,403.63c0,0,1.22-6.53,4.87-7.34c0,0,0.86-0.46,2.18-1.34
				c-1.32,0.89-2.18,1.34-2.18,1.34C349.26,397.11,348.04,403.63,348.04,403.63z"/>
			<polygon class="st7" points="387.26,355.54 389.3,355.17 386.64,357.84 390.16,354.31 388.36,352.8 386.82,353.08 			"/>
			<rect x="300.39" y="176.35" class="st7" width="3.75" height="19.74"/>
			<path class="st7" d="M286.61,196.35l3.71-0.53c0.01,0.04,0.01,0.09,0.01,0.15c0.07-1.46,3.29-10.22,6.36-17.84l-3.48-1.4
				C288.61,188.16,286.39,194.77,286.61,196.35z"/>
			<path class="st7" d="M329.16,178.05c0.21,0.6,5.19,14.74,7.1,18.83l3.4-1.59c-1.83-3.93-6.91-18.35-6.96-18.49L329.16,178.05z"/>
			<path class="st7" d="M285.37,173.57c-3.98,5.15-13.31,17.42-13.88,20.25l3.67,0.76c0.46-1.66,7.06-10.82,13.17-18.72
				L285.37,173.57z"/>
			<path class="st7" d="M336.21,501.72c-1.69,0.59-3.27,1.24-4.75,1.93C332.94,502.96,334.52,502.3,336.21,501.72z"/>
			<path class="st7" d="M357.37,393.3c-0.84,0.66-1.62,1.21-2.28,1.65C355.75,394.51,356.53,393.96,357.37,393.3z"/>
			<path class="st7" d="M336.55,175.95c0.11,0.12,10.71,12.36,14.87,20.95l3.38-1.64c-4.39-9.05-14.97-21.26-15.42-21.78
				L336.55,175.95z"/>
			<path class="st7" d="M335.26,422.06l-20.69,21.91l-7.3,9.33l7.3-9.33L335.26,422.06c0,0,10.66-6,15.53-5.91
				C345.92,416.06,335.26,422.06,335.26,422.06z"/>
			<path class="st7" d="M303.78,456.91c-0.51,0.73-0.98,1.52-1.42,2.36C302.8,458.43,303.27,457.64,303.78,456.91z"/>
			<path class="st7" d="M452.36,263.97l-0.6-1.1l-36.2,19.91l-41.53-13.83c-3.7-1.23-7.73-1.1-11.35,0.36l-25.49,10.35l-27.75-14.24
				c-3.44-1.77-7.68-1.42-10.78,0.9l-23.24,17.31l-34.18-17.44c-3.1-1.58-6.85-1.42-9.8,0.42l-24.15,15.07l-26.26-13.94l-0.59,1.11
				v0v1.42v0l68.39,36.3l51.32-38.24c2.38-1.77,5.5-2.03,8.15-0.68l48.35,24.82l-47.55,15.7h-31.85v2.5h31.74l72.41,38.03l-4.88,4.2
				l-17.12,14.72l1.01-2.13l-106.02-50.03l-1.07,2.26l47.91,22.61l-74.67-9.43l-0.31,2.48l61.07,7.71l-106.88,9.86l0,0v2.51v3.31
				l0.12,10.98l0.03,2.41v1h-0.01v47.86c4.4-0.79,8.88-0.1,13.31,0.16c5.68,0.33,6.02,0.23,6.09-5.64
				c0.08-7.76-0.15-15.52,0.11-23.28c0.15-4.64,1.55-5.9,5.87-5.99c4.69-0.1,6.03,1.18,6.2,5.98c0.06,1.71,0.01,3.41,0.06,5.12
				c0.14,8.26-0.13,16.53,0.12,24.8c0.01,0.33,0.14,0.61,0.64,1.13c1.22-2.19,1.15-4.46,1.16-6.68c0.05-7.49,0.05-14.98,0.01-22.47
				c-0.02-3.82,0.68-6.56,5.41-7.08c3.95-0.44,7.37-2.26,6.82-7.38c-0.13-1.21,0.24-2.49,1.11-3.49c6.68-2.41,8.82-0.89,9.16,6.09
				c0.39,8.1-1.9,16.06-0.94,22.89c0.03-1.39-0.03-4.04,0-6.7c0.07-6.23,2.59-10.87,8.71-13.01c1.32-0.46,1.59-1.31,1.64-2.46
				c0.05-1.24,0.06-2.5,0.5-3.69c0.66-1.78,1.86-2.87,3.87-2.71c1.93,0.16,2.6,1.56,2.82,3.2c0.5,3.87,0.17,7.77,0.25,11.66
				c0.02,0.93-0.16,1.91,0.04,2.79c0.39,1.73-1.3,4.84,1.61,4.87c2.37,0.03,4.39-2.2,4.76-5.03c0.31-2.32,0.13-4.66,0.16-7
				c0.03-2.49-0.14-4.99,0.14-7.47c0.5-4.49,2.28-5.6,6.98-4.48c2.52,5.01,0.78,10.38,1.28,15.56c0.23,2.37-0.42,4.92,1.53,7.31
				c1.91-1.86,1.14-3.95,1.32-5.8c0.52-5.35-1.16-10.86,1.23-16.07c1.53-1.03,3.12-1.03,4.77-0.36c2.32,1.48,2.31,3.89,2.36,6.22
				c0.13,5.9-0.05,11.8,0.05,16.83c0.17-6.83,0.61-14.52,1.78-22.15c2.98-2.25,6.71-2.32,10.11-2.97c3.42-0.66,3.85,2.4,3.9,5.01
				c0.13,7.79-0.07,15.59,0.11,23.38c0.06,2.64-1.38,6.91,3.38,6.63c4.09-0.24,1.99-4.13,2.32-6.42c0.43-2.94-0.87-5.85-0.7-8.82
				c0.16-2.95,0.64-5.86,4.51-5.82c3.49,0.04,4.34,2.58,4.41,5.46c0.15,5.76,0.1,11.53,0.02,17.3c-0.05,3.47-1.97,5.8-4.56,7.74
				c-18.46,13.83-36.98,27.59-55.29,41.62c-2.41,1.85-5.03,2.67-7.88,1.85c-10.47-3.02-20.99-5.88-31.43-9.03
				c-4.86-2.6-10.41-2.33-15.57-3.67c-1.23-0.07-2.45-0.2-3.65-0.48c-2.16-0.97-5.17,0.08-6.56-2.73c-1.06-0.02-2.15,0.11-3.18-0.08
				c-0.26-0.05-0.56-0.04-0.87-0.02v19.92h0.01v7.83c1.76,13.71,12.22,24.7,25.66,27.27h30.4l-1.01-0.46l50.15-24.97l2.43-17.5
				l21.1-30.46c0,0,22.72-15.79,22.31-26.23c-0.41-10.44,10.95-16.95,10.95-16.95l16.68-14.35l0.03-0.03l0.12-0.1l22-18.92
				l1.35,0.71l0.63-0.78l0.89,0.74l-0.89-0.74l29.22-36.09c1.98-2.44,5.37-3.27,8.25-2l31.51,13.9v16.86v15.49v106.78l0,2.61l0-2.61
				v-95.8v-10.98v-12.81v-2.68v-16.86v-2.73V265.4V263.97v-18.48v-17.78l0,0V263.97z M248.6,303.61l-38.76-20.58l22.92-14.3
				c2.21-1.38,5.02-1.5,7.34-0.32l33.09,16.88L248.6,303.61z M452.36,321.69l-30.5-13.45c-3.91-1.72-8.52-0.61-11.2,2.71
				l-28.56,35.28l-69.61-36.56l47.28-15.61l4.67,2.4l1.14-2.23l-25.46-13.07l23.49-9.54c3.06-1.24,6.48-1.36,9.62-0.31l39.34,13.1
				l-18.48,10.16l1.21,2.19l57.06-31.38V321.69z"/>
			<path class="st7" d="M316.4,512.59L316.4,512.59c0,0,4.53-2.92,7.24-4.6c1.15-0.71,2.37-1.45,3.67-2.19
				c-1.3,0.73-2.52,1.47-3.67,2.19C320.93,509.67,316.4,512.59,316.4,512.59z"/>
			<path class="st7" d="M352.62,498.67c-3.94,0.32-7.6,0.8-10.98,1.53c-1.93,0.41-3.73,0.93-5.42,1.52c1.69-0.59,3.49-1.1,5.42-1.52
				C345.02,499.47,348.68,498.99,352.62,498.67c0.09,0,0.19-0.01,0.29-0.02l0,0C352.81,498.66,352.71,498.67,352.62,498.67z"/>
			<path class="st6" d="M394.09,294.59l18.48-10.16l-39.34-13.1c-3.14-1.05-6.56-0.93-9.62,0.31l-23.49,9.54l25.46,13.07l-1.14,2.23
				l-4.67-2.4l-47.28,15.61l69.61,36.56l28.56-35.28c2.69-3.32,7.29-4.44,11.2-2.71l30.5,13.45V265.4l-57.06,31.38L394.09,294.59z"
				/>
			<path class="st6" d="M451.28,341.47l0.12-0.14l0.12,0.1l0.84-0.15v-16.86l-31.51-13.9c-2.88-1.27-6.27-0.45-8.25,2l-29.22,36.09
				l0.89,0.74l4.1,3.44L451.28,341.47z"/>
			<path class="st6" d="M226.25,333.37l0.31-2.48l74.67,9.43l-47.91-22.61l1.07-2.26l106.02,50.03l-1.01,2.13l17.12-14.72l4.88-4.2
				l-72.41-38.03h-31.74v-2.5h31.85l47.55-15.7l-48.35-24.82c-2.64-1.36-5.76-1.1-8.15,0.68l-51.32,38.24l-68.39-36.3v80.69
				l106.88-9.86L226.25,333.37z"/>
			<path class="st6" d="M232.76,268.73l-22.92,14.3l38.76,20.58l24.58-18.31l-33.09-16.88
				C237.78,267.23,234.97,267.35,232.76,268.73z"/>
			<path class="st8" d="M304.9,65.69c6.84,0.59,13.53,2.85,20.05,6.68c-0.58-10.46-11.39-14.5-11.89-14.68l-15.01-4.45
				c-7.72-2.27-13.8-1.66-18.08,1.79c-6.32,5.11-7.58,15.26-7.78,20.84C277.59,71.7,289.46,64.35,304.9,65.69z"/>
			<path class="st9" d="M267.37,101.06c1.92,2.98,7.6,7.98,18.56,14.88c0.4-4.46,0.66-11.59-0.67-15.37
				C282.13,100.09,275.18,99.41,267.37,101.06z"/>
			<path class="st10" d="M284.59,96.67c-1.23-4.79-8.91-11.13-14.37-14.61l-12.87,5.93c-2.2,1.16-3.64,2.8-4.29,4.96
				c-1,3.29,0.06,7.01,0.9,9.17C265.89,95.31,278.69,95.89,284.59,96.67z"/>
			<path class="st5" d="M364.72,385.58c-0.41,0.6-0.83,1.18-1.27,1.74C363.89,386.76,364.31,386.18,364.72,385.58z"/>
			<path class="st5" d="M366.89,381.67c-0.62,1.4-1.36,2.7-2.17,3.91C365.54,384.37,366.28,383.07,366.89,381.67z"/>
			<path class="st5" d="M350.79,416.14c0.5,0.01,0.95,0.08,1.31,0.23l0,0C351.74,416.22,351.29,416.15,350.79,416.14z"/>
			<path class="st5" d="M368.53,376.01c-0.29,2.03-0.86,3.92-1.63,5.66C367.66,379.93,368.24,378.04,368.53,376.01l8.24-8.27l0,0
				L368.53,376.01z"/>
			<path class="st5" d="M362.78,388.13c-0.45,0.53-0.91,1.04-1.37,1.52C361.88,389.17,362.33,388.66,362.78,388.13z"/>
			<path class="st5" d="M296.52,488.59c0,0,0.05-7,1.42-14.91C296.57,481.59,296.52,488.59,296.52,488.59l-0.82,12.64l0,0
				L296.52,488.59z"/>
			<polygon class="st5" points="388.36,352.8 388.36,352.8 385.69,350.55 			"/>
			<path class="st11" d="M387.26,355.54l-0.44-2.46l1.55-0.28l-2.68-2.24l-1.42-1.19l-0.89-0.74l-0.63,0.78l-1.35-0.71l-22,18.92
				l-0.06,0.13h-0.09l-16.68,14.35c0,0-11.36,6.52-10.95,16.95s-22.31,26.23-22.31,26.23l-21.1,30.46l-2.43,17.5l-50.15,24.97
				l1.01,0.46h43.4c0.1,0.01,0.19,0.02,0.28,0.02c3.94,0.32,7.6,0.8,10.99,1.53c0.43,0.09,0.85,0.18,1.26,0.28
				c0.27,0.06,0.53,0.12,0.79,0.18c0.11,0.03,0.22,0.05,0.33,0.08c0.33,0.08,0.64,0.15,0.96,0.23c0.03,0.01,0.05,0.01,0.08,0.02
				c0.34,0.08,0.66,0.16,0.98,0.24l0.82-12.64c0,0,0.05-7,1.42-14.91c0.86-4.94,2.23-10.25,4.42-14.42
				c0.44-0.83,0.91-1.62,1.42-2.36c1.01-1.46,2.17-2.7,3.49-3.61l7.3-9.33l20.69-21.91c0,0,10.66-6,15.53-5.91
				c0.5,0.01,0.94,0.08,1.31,0.23l-4.06-12.74c0,0,1.22-6.53,4.87-7.34c0,0,0.86-0.46,2.18-1.34c0.66-0.44,1.44-1,2.28-1.65
				c1.26-0.98,2.67-2.2,4.05-3.65c0.46-0.48,0.92-0.99,1.37-1.52c0.22-0.27,0.45-0.54,0.67-0.81c0.44-0.56,0.86-1.14,1.27-1.74
				c0.82-1.21,1.56-2.51,2.17-3.91c0.77-1.74,1.35-3.63,1.63-5.66l8.24-8.27l9.87-9.9l2.67-2.67L387.26,355.54z"/>
			<polygon class="st5" points="388.36,352.8 384.27,349.36 385.69,350.55 			"/>
			<polygon class="st5" points="359.28,367.72 359.25,367.74 359.34,367.74 			"/>
			<polygon class="st5" points="359.4,367.61 359.28,367.72 359.34,367.74 			"/>
			<path class="st12" d="M436.13,495.23c8.69-4.82,14.91-13.57,16.22-23.85l0.01-5.22l-0.01,5.22
				C451.03,481.66,444.82,490.41,436.13,495.23z"/>
			<path class="st12" d="M431.58,497.3c-1.58,0.57-3.21,1.03-4.89,1.35C428.37,498.33,430.01,497.88,431.58,497.3z"/>
			<path class="st12" d="M295.7,501.23L295.7,501.23L295.7,501.23c4.85,1.24,7.79,2.52,11.3,4.94c1.22,0.84,9.4,6.42,9.4,6.42l0,0
				c0,0-8.17-5.58-9.4-6.42C303.49,503.75,300.55,502.47,295.7,501.23z"/>
			<rect x="180.44" y="270.26" class="st12" width="0" height="80.69"/>
			<path class="st11" d="M207.29,281.68l24.15-15.07c2.95-1.84,6.71-2,9.8-0.42l34.18,17.44l23.24-17.31
				c3.11-2.31,7.34-2.67,10.78-0.9l27.75,14.24l25.49-10.35c3.62-1.47,7.65-1.6,11.35-0.36l41.53,13.83l36.2-19.91l0.6,1.1v-36.26
				h-21.61H188.2h-7.76v17.78v23.35l0.59-1.11L207.29,281.68z"/>
			<polygon class="st11" points="180.44,227.72 180.44,227.72 180.44,268.84 180.44,268.84 180.44,245.49 			"/>
			<path class="st13" d="M181.44,443.64c1.03,0.19,2.12,0.07,3.18,0.08c1.39,2.81,4.4,1.76,6.56,2.73c1.2,0.28,2.42,0.41,3.65,0.48
				c5.16,1.34,10.7,1.07,15.57,3.67c10.44,3.15,20.95,6.01,31.43,9.03c2.85,0.82,5.47-0.01,7.88-1.85
				c18.31-14.03,36.83-27.79,55.29-41.62c2.59-1.94,4.52-4.27,4.56-7.74c0.08-5.77,0.13-11.53-0.02-17.3
				c-0.07-2.88-0.92-5.42-4.41-5.46c-3.87-0.04-4.35,2.88-4.51,5.82c-0.17,2.97,1.13,5.88,0.7,8.82c-0.33,2.29,1.77,6.18-2.32,6.42
				c-4.76,0.28-3.32-3.99-3.38-6.63c-0.18-7.79,0.02-15.59-0.11-23.38c-0.04-2.61-0.47-5.67-3.9-5.01
				c-3.4,0.65-7.13,0.72-10.11,2.97c-1.17,7.63-1.61,15.31-1.78,22.15c-0.1-5.03,0.08-10.93-0.05-16.83
				c-0.05-2.33-0.04-4.74-2.36-6.22c-1.65-0.67-3.24-0.67-4.77,0.36c-2.39,5.21-0.71,10.72-1.23,16.07
				c-0.18,1.85,0.59,3.94-1.32,5.8c-1.95-2.39-1.3-4.94-1.53-7.31c-0.5-5.18,1.24-10.55-1.28-15.56c-4.71-1.12-6.49-0.01-6.98,4.48
				c-0.28,2.48-0.1,4.98-0.14,7.47c-0.03,2.33,0.14,4.68-0.16,7c-0.37,2.82-2.39,5.05-4.76,5.03c-2.91-0.03-1.22-3.14-1.61-4.87
				c-0.2-0.89-0.02-1.86-0.04-2.79c-0.08-3.89,0.25-7.79-0.25-11.66c-0.21-1.64-0.89-3.04-2.82-3.2c-2-0.16-3.21,0.92-3.87,2.71
				c-0.44,1.19-0.45,2.44-0.5,3.69c-0.05,1.15-0.32,1.99-1.64,2.46c-6.12,2.15-8.63,6.79-8.71,13.01c-0.03,2.66,0.03,5.31,0,6.7
				c-0.96-6.83,1.33-14.79,0.94-22.89c-0.34-6.97-2.47-8.5-9.16-6.09c-0.87,1.01-1.24,2.28-1.11,3.49c0.55,5.13-2.87,6.94-6.82,7.38
				c-4.72,0.53-5.42,3.26-5.41,7.08c0.03,7.49,0.04,14.98-0.01,22.47c-0.01,2.22,0.05,4.49-1.16,6.68c-0.51-0.52-0.63-0.8-0.64-1.13
				c-0.25-8.27,0.02-16.54-0.12-24.8c-0.05-1.7,0-3.41-0.06-5.12c-0.17-4.8-1.51-6.08-6.2-5.98c-4.32,0.09-5.71,1.36-5.87,5.99
				c-0.26,7.76-0.03,15.52-0.11,23.28c-0.06,5.87-0.41,5.97-6.09,5.64c-4.43-0.26-8.92-0.95-13.31-0.16v24.62
				C180.88,443.6,181.18,443.59,181.44,443.64z"/>
			<g>
				<path class="st14" d="M348.89,101.16C335.11,81.5,320.2,70.8,304.62,69.43c-15.16-1.34-26.87,6.77-31.17,10.27
					c4.7,3.16,15.01,10.92,15.07,18.15l-0.34,0c2.78,5.36,1.69,16.92,1.3,20.28c2.37,1.43,4.95,2.94,7.75,4.52
					c15.38,8.66,11.59,29.07,10.98,31.91c9.71-3.49,21.16-6.44,29.79-5.12C361.23,121.38,349.41,101.97,348.89,101.16z
					 M321.36,89.99c-0.46,0.19-1.22,0.16-2.32-0.26c-0.79-0.3-1.67-0.33-2.44-0.13c-0.77,0.2-1.43,0.62-1.8,1.22
					c-0.41,0.66-0.88,1.17-1.48,1.48c-0.6,0.31-1.35,0.38-2.32,0.32c-1.94-0.12-4.78-0.95-9.26-2.57L295,87.61l5.34-2.44
					c3.29-1.5,6.39-2.26,9.32-2.31c1.47-0.03,2.86,0.12,4.24,0.45c1.38,0.33,2.75,0.84,4.05,1.54c1.14,0.61,2.04,1.29,2.7,1.99
					c0.66,0.7,1.03,1.43,1.16,1.99C321.94,89.39,321.82,89.8,321.36,89.99z"/>
			</g>
			<g>
				<path class="st7" d="M188.2,227.72h-7.76v41.12v0v1.42v0v80.69v2.51v3.31l0.12,10.98l0.03,2.41v1h-0.01v47.86v24.62v19.92h0.01
					v7.83c1.76,13.71,12.22,24.7,25.66,27.27h30.4h43.4c0.1,0.01,0.19,0.02,0.28,0.02c3.94,0.32,7.6,0.8,10.99,1.53
					c0.43,0.09,0.85,0.18,1.26,0.28c0.27,0.06,0.53,0.12,0.79,0.18c0.11,0.03,0.22,0.05,0.33,0.08c0.33,0.08,0.64,0.15,0.96,0.23
					c0.03,0.01,0.05,0.01,0.08,0.02c0.34,0.08,0.66,0.16,0.98,0.24c4.85,1.24,7.79,2.52,11.3,4.94c1.22,0.84,9.4,6.42,9.4,6.42
					s4.53-2.92,7.24-4.6c1.15-0.71,2.37-1.45,3.67-2.19c1.3-0.73,2.68-1.46,4.16-2.16c1.48-0.69,3.06-1.35,4.75-1.93
					c1.69-0.59,3.49-1.1,5.42-1.52c3.39-0.73,7.05-1.22,10.98-1.53c0.09,0,0.19-0.01,0.29-0.02h73.79c1.68-0.32,3.31-0.77,4.89-1.35
					c1.58-0.57,3.09-1.27,4.54-2.07c8.69-4.82,14.91-13.57,16.22-23.85l0.01-5.22l0-2.61v-95.8v-10.98v-12.81v-2.68v-16.86v-2.73
					V265.4v-1.43v-18.48v-17.78h-21.61H188.2z"/>
				<path class="st7" d="M338.4,153.3c-16.45-3.35-47.66,12.91-47.97,13.07l-1.75-3.33c0.6-0.31,7.28-3.8,16.09-7.2
					c-21.14-7.67-47.86,25.94-49.11,27.54l-20.08,30.95h158.94h0.01C384.88,196.56,353.41,156.33,338.4,153.3z M271.49,193.82
					c0.57-2.83,9.89-15.11,13.88-20.25l2.97,2.3c-6.11,7.89-12.71,17.05-13.17,18.72L271.49,193.82z M290.34,195.96
					c0-0.06,0-0.11-0.01-0.15l-3.71,0.53c-0.23-1.59,1.99-8.19,6.61-19.63l3.48,1.4C293.63,185.74,290.41,194.5,290.34,195.96z
					 M304.14,196.08h-3.75v-19.74h3.75V196.08z M315.23,201.76h-3.75v-24.34h3.75V201.76z M325.51,195.11l-3.22,1.93
					c-2.66-4.43-0.67-17.38-0.24-19.94l3.7,0.62C324.79,183.51,324.08,192.73,325.51,195.11z M336.27,196.87
					c-1.91-4.09-6.89-18.23-7.1-18.83l3.54-1.25c0.05,0.15,5.13,14.56,6.96,18.49L336.27,196.87z M351.43,196.9
					c-4.17-8.59-14.77-20.83-14.87-20.95l2.83-2.46c0.45,0.52,11.03,12.73,15.42,21.78L351.43,196.9z"/>
				<g>
					<path class="st2" d="M288.68,163.04l1.75,3.33c0.31-0.16,31.52-16.42,47.97-13.07c15.01,3.04,46.47,43.27,56.13,61.03h4.21
						h0.01c-8.03-15.53-38.72-56.6-56.75-63.83c-0.99-0.4-1.94-0.69-2.84-0.88c-0.36-0.08-0.74-0.14-1.13-0.2
						c-8.63-1.33-20.09,1.64-29.81,5.12c-1.18,0.44-2.33,0.86-3.45,1.3C295.96,159.24,289.28,162.73,288.68,163.04z"/>
					<path class="st2" d="M285.37,173.56c-3.98,5.15-13.31,17.42-13.88,20.25l3.67,0.76c0.46-1.66,7.06-10.82,13.17-18.72
						L285.37,173.56z"/>
					<path class="st2" d="M286.62,196.34l3.71-0.53c0.01,0.04,0.01,0.09,0.01,0.15c0.07-1.46,3.29-10.22,6.36-17.84l-3.48-1.4
						C288.61,188.15,286.39,194.76,286.62,196.34z"/>
					<rect x="300.39" y="176.33" class="st2" width="3.75" height="19.74"/>
					<rect x="311.48" y="177.42" class="st2" width="3.75" height="24.34"/>
					<path class="st2" d="M322.05,177.11c-0.43,2.55-2.41,15.51,0.24,19.94l3.22-1.93c-1.43-2.39-0.72-11.6,0.24-17.39
						L322.05,177.11z"/>
					<path class="st2" d="M329.17,178.04c0.21,0.6,5.19,14.74,7.1,18.83l3.4-1.59c-1.83-3.93-6.91-18.35-6.96-18.49L329.17,178.04z"
						/>
					<path class="st2" d="M336.55,175.94c0.11,0.12,10.71,12.36,14.87,20.95l3.38-1.64c-4.39-9.05-14.97-21.26-15.42-21.78
						L336.55,175.94z"/>
					<path class="st2" d="M235.58,214.33L235.58,214.33l20.08-30.95c1.25-1.6,27.97-35.21,49.11-27.54c1.13-0.44,2.28-0.86,3.45-1.3
						c0.07-0.3,0.17-0.81,0.27-1.46c-0.01,0-0.01,0-0.02,0c-0.11-0.02-0.2-0.05-0.3-0.09l-0.14-0.06c-0.35-0.04-0.69-0.1-1.02-0.18
						c-0.62-0.15-1.26-0.45-1.82-0.74c-0.1-0.05-0.2-0.1-0.29-0.17c-0.01,0-0.01-0.01-0.02-0.01c0,0.03-0.01,0.06-0.01,0.09
						c-23.83-7.22-51.05,27.69-52.22,29.23l-21.54,33.19h0.01H235.58z"/>
				</g>
				<path class="st15" d="M456.88,214.33h-26.14h-32h-0.01h-4.21h-0.01H235.58h0h-4.47h-0.01h-42.9h-12.29
					c-4.9,0-8.87,3.97-8.87,8.87v245.29c0,4.26,0.61,8.38,1.76,12.27c1.85,6.3,5.07,12,9.34,16.76l0.02,0.02l3.41,3.42l0.02,0.02
					c7.7,6.89,17.87,11.07,29.02,11.07h68.6c19.1,1.49,32.38,12.58,32.56,12.76l4.63,4.11l4.48-4.34c0.54-0.53,12-11.12,34.57-12.54
					h66.73c11.14,0,21.32-4.19,29.02-11.07l0.01-0.02l3.41-3.42l0.03-0.02c4.26-4.76,7.49-10.46,9.34-16.76
					c1.14-3.89,1.76-8.01,1.76-12.27V223.19C465.75,218.3,461.78,214.33,456.88,214.33z M452.36,245.49v18.48v1.43v56.29v2.73v16.86
					v2.68v12.81v10.98v95.8l0,2.61l-0.01,5.22c-1.32,10.28-7.53,19.04-16.22,23.85c-1.45,0.8-2.97,1.5-4.54,2.07
					c-1.58,0.57-3.21,1.03-4.89,1.35h-73.79c-0.1,0.01-0.19,0.02-0.29,0.02c-3.94,0.32-7.6,0.8-10.98,1.53
					c-1.93,0.41-3.73,0.93-5.42,1.52c-1.69,0.59-3.27,1.24-4.75,1.93c-1.48,0.69-2.86,1.42-4.16,2.16c-1.3,0.73-2.52,1.47-3.67,2.19
					c-2.7,1.68-7.24,4.6-7.24,4.6s-8.17-5.58-9.4-6.42c-3.51-2.42-6.45-3.7-11.3-4.94c-0.32-0.08-0.64-0.16-0.98-0.24
					c-0.03-0.01-0.05-0.01-0.08-0.02c-0.31-0.08-0.63-0.15-0.96-0.23c-0.11-0.03-0.22-0.05-0.33-0.08
					c-0.26-0.06-0.52-0.12-0.79-0.18c-0.41-0.09-0.83-0.18-1.26-0.28c-3.39-0.73-7.05-1.22-10.99-1.53c-0.09,0-0.18-0.01-0.28-0.02
					h-43.4h-30.4c-13.44-2.57-23.89-13.56-25.66-27.27v-7.83h-0.01v-19.92v-24.62v-47.86h0.01v-1l-0.03-2.41l-0.12-10.98v-3.31
					v-2.51v-80.69v0v-1.42v0v-41.12h7.76h242.54h21.61V245.49z"/>
			</g>
		</g>
		<g>
			<path class="st16" d="M412.82,449.16c1.5,0.47,3.16,0.78,4.89,0.78c0.73,0,1.47-0.05,2.22-0.16c3.95-0.6,7.32-2.8,9.75-6.37
				l-3.47-2.36c-1.78,2.61-4.1,4.16-6.91,4.58c-1.89,0.29-3.85,0-5.49-0.55c2.07-6.28,5.69-8.35,5.91-8.48l-1.94-3.73
				c-0.3,0.16-4.87,2.65-7.6,9.92c-1.54-1.86-3.56-5.56-4.63-7.82l-3.79,1.8c0.38,0.8,3.8,7.9,6.63,10.15
				c0.16,0.13,0.35,0.25,0.53,0.38c-0.71,3.53-0.97,7.85-0.44,13.09c-6.57,2.3-8.57,16.13-8.57,16.13h21.8
				c0,0-2.71-13.19-8.99-15.95C412.19,455.99,412.32,452.22,412.82,449.16z"/>
		</g>
	</g>
	<g>
		<path class="st6" d="M930.52,262.53H800.02V56.33h40.36v170.26h90.14V262.53z"/>
		<path class="st6" d="M949.66,123.79c7.85-3.53,17.18-6.33,27.98-8.4c10.8-2.06,22.09-3.09,33.88-3.09
			c10.21,0,18.75,1.23,25.63,3.68c6.87,2.46,12.32,5.94,16.35,10.46c4.02,4.52,6.87,9.92,8.54,16.2c1.67,6.29,2.5,13.36,2.5,21.21
			c0,8.64-0.29,17.33-0.88,26.07c-0.59,8.74-0.93,17.33-1.03,25.77c-0.1,8.45,0.15,16.64,0.74,24.6c0.59,7.95,2.06,15.46,4.42,22.53
			h-31.22l-6.19-20.32h-1.47c-3.93,6.09-9.38,11.34-16.35,15.76c-6.97,4.42-15.96,6.63-26.95,6.63c-6.88,0-13.06-1.03-18.56-3.09
			c-5.5-2.06-10.21-5.01-14.14-8.84c-3.93-3.83-6.97-8.34-9.13-13.55c-2.16-5.2-3.24-11.05-3.24-17.53c0-9.03,2.01-16.64,6.04-22.83
			c4.02-6.19,9.82-11.19,17.38-15.02c7.56-3.83,16.59-6.48,27.1-7.95c10.5-1.47,22.24-1.91,35.2-1.33c1.37-11,0.59-18.9-2.36-23.71
			c-2.95-4.81-9.53-7.22-19.74-7.22c-7.66,0-15.76,0.79-24.3,2.36c-8.54,1.57-15.57,3.64-21.06,6.19L949.66,123.79z M998.26,233.36
			c7.66,0,13.74-1.72,18.26-5.15c4.52-3.43,7.85-7.12,10.02-11.05v-19.15c-6.09-0.59-11.93-0.69-17.53-0.29
			c-5.6,0.4-10.56,1.28-14.88,2.65c-4.32,1.38-7.76,3.34-10.31,5.89c-2.55,2.55-3.83,5.79-3.83,9.72c0,5.5,1.62,9.77,4.86,12.81
			C988.1,231.85,992.56,233.36,998.26,233.36z"/>
		<path class="st6" d="M1283.98,56.33h38.29v133.14c0,13.36-1.77,24.84-5.3,34.46c-3.54,9.62-8.45,17.58-14.73,23.86
			c-6.29,6.29-13.95,10.9-22.98,13.84c-9.03,2.95-18.95,4.42-29.75,4.42c-52.24,0-78.35-23.86-78.35-71.58V56.33h40.36v130.2
			c0,8.05,0.74,14.88,2.21,20.47c1.47,5.6,3.78,10.12,6.92,13.55c3.14,3.44,7.07,5.89,11.78,7.36c4.71,1.47,10.21,2.21,16.5,2.21
			c12.37,0,21.31-3.43,26.81-10.31c5.5-6.87,8.25-17.97,8.25-33.29V56.33z"/>
		<path class="st6" d="M1446,262.53v-83.66c0-11.98-1.72-20.62-5.16-25.92c-3.44-5.3-9.28-7.95-17.53-7.95
			c-7.27,0-13.4,2.11-18.41,6.33c-5.01,4.23-8.59,9.48-10.75,15.76v95.44h-38.29V115.24h30.34l4.42,19.44h1.18
			c4.51-6.28,10.5-11.78,17.97-16.5c7.46-4.71,17.08-7.07,28.87-7.07c7.26,0,13.74,0.98,19.44,2.95c5.69,1.97,10.5,5.21,14.43,9.72
			c3.93,4.52,6.87,10.65,8.84,18.41c1.96,7.76,2.95,17.33,2.95,28.72v91.61H1446z"/>
		<path class="st6" d="M1514.04,73.71c0-5.69,2.11-10.55,6.33-14.58c4.22-4.02,10.06-6.04,17.53-6.04c7.46,0,13.5,2.02,18.12,6.04
			c4.61,4.03,6.92,8.89,6.92,14.58c0,5.7-2.31,10.46-6.92,14.29c-4.62,3.83-10.66,5.74-18.12,5.74c-7.47,0-13.31-1.91-17.53-5.74
			C1516.15,84.17,1514.04,79.41,1514.04,73.71z M1519.64,115.24h38.29v147.28h-38.29V115.24z"/>
		<path class="st6" d="M1588.56,188.88c0-24.94,6.08-44.13,18.26-57.59c12.17-13.45,29.26-20.18,51.25-20.18
			c11.78,0,21.99,1.87,30.63,5.6c8.64,3.73,15.8,8.98,21.5,15.76c5.69,6.78,9.96,14.98,12.81,24.6c2.84,9.62,4.27,20.23,4.27,31.81
			c0,24.94-6.04,44.14-18.12,57.59c-12.08,13.45-29.12,20.18-51.11,20.18c-11.78,0-22-1.87-30.63-5.6
			c-8.64-3.73-15.86-8.98-21.65-15.76c-5.79-6.77-10.12-14.97-12.96-24.6C1589.99,211.08,1588.56,200.47,1588.56,188.88z
			 M1628.04,188.88c0,6.48,0.59,12.47,1.77,17.97c1.18,5.5,2.95,10.31,5.3,14.43s5.45,7.32,9.28,9.57c3.83,2.26,8.39,3.39,13.7,3.39
			c10.01,0,17.48-3.63,22.39-10.9c4.91-7.26,7.36-18.75,7.36-34.46c0-13.55-2.26-24.5-6.78-32.84
			c-4.52-8.34-12.18-12.52-22.98-12.52c-9.43,0-16.79,3.53-22.09,10.6C1630.69,161.2,1628.04,172.78,1628.04,188.88z M1659.85,50.44
			h38.88v8.84l-32.7,36.53h-21.8L1659.85,50.44z"/>
		<path class="st6" d="M1843.95,262.53v-83.66c0-11.98-1.72-20.62-5.16-25.92c-3.44-5.3-9.28-7.95-17.53-7.95
			c-7.27,0-13.4,2.11-18.41,6.33c-5.01,4.23-8.59,9.48-10.75,15.76v95.44h-38.29V115.24h30.34l4.42,19.44h1.18
			c4.51-6.28,10.5-11.78,17.97-16.5c7.46-4.71,17.08-7.07,28.87-7.07c7.26,0,13.74,0.98,19.44,2.95c5.69,1.97,10.5,5.21,14.43,9.72
			c3.93,4.52,6.87,10.65,8.84,18.41c1.96,7.76,2.95,17.33,2.95,28.72v91.61H1843.95z"/>
	</g>
	<g>
		<path class="st6" d="M930.52,539.87H800.02v-206.2h40.36v170.26h90.14V539.87z"/>
		<path class="st6" d="M1058.06,527.2c-5.89,4.71-13.9,8.69-24.01,11.93c-10.12,3.24-20.87,4.86-32.25,4.86
			c-23.76,0-41.14-6.92-52.14-20.77c-11-13.84-16.5-32.84-16.5-57c0-25.92,6.19-45.36,18.56-58.32
			c12.37-12.96,29.75-19.44,52.14-19.44c7.46,0,14.73,0.98,21.8,2.95c7.07,1.97,13.35,5.21,18.85,9.72
			c5.5,4.52,9.91,10.6,13.26,18.26c3.34,7.66,5.01,17.19,5.01,28.57c0,4.12-0.25,8.54-0.74,13.25c-0.49,4.71-1.22,9.62-2.2,14.73
			h-88.08c0.58,12.37,3.76,21.7,9.54,27.98c5.77,6.29,15.12,9.43,28.03,9.43c8.02,0,15.22-1.22,21.58-3.68
			c6.36-2.45,11.2-4.96,14.53-7.51L1058.06,527.2z M1003.4,419.09c-9.96,0-17.34,3-22.13,8.98c-4.79,5.99-7.66,13.99-8.64,24.01
			h54.5c0.78-10.6-0.83-18.75-4.83-24.45C1018.3,421.94,1012,419.09,1003.4,419.09z"/>
		<path class="st6" d="M1074.56,392.58h20.33v-27.69l38.29-10.9v38.59h35.94v32.4h-35.94v56.56c0,10.21,1.03,17.53,3.09,21.95
			c2.06,4.42,5.94,6.63,11.63,6.63c3.93,0,7.31-0.39,10.16-1.18c2.84-0.78,6.04-1.96,9.57-3.54l6.77,29.46
			c-5.3,2.55-11.49,4.71-18.56,6.48c-7.07,1.77-14.24,2.65-21.5,2.65c-13.55,0-23.52-3.49-29.9-10.46
			c-6.38-6.97-9.57-18.41-9.57-34.32v-74.23h-20.33V392.58z"/>
		<path class="st6" d="M1190.32,351.05c0-5.69,2.11-10.55,6.33-14.58c4.22-4.02,10.06-6.04,17.53-6.04c7.46,0,13.5,2.02,18.12,6.04
			c4.61,4.03,6.92,8.89,6.92,14.58c0,5.7-2.31,10.46-6.92,14.29c-4.62,3.83-10.66,5.74-18.12,5.74c-7.47,0-13.31-1.91-17.53-5.74
			C1192.43,361.51,1190.32,356.75,1190.32,351.05z M1195.92,392.58h38.29v147.28h-38.29V392.58z"/>
		<path class="st6" d="M1376.19,530.73c-5.89,4.32-13.01,7.61-21.36,9.87c-8.35,2.25-16.94,3.39-25.77,3.39
			c-11.78,0-21.75-1.87-29.9-5.6c-8.15-3.73-14.78-8.98-19.88-15.76c-5.11-6.78-8.79-14.97-11.05-24.6
			c-2.26-9.62-3.39-20.22-3.39-31.81c0-24.94,5.6-44.13,16.79-57.59c11.19-13.45,27.49-20.18,48.9-20.18
			c10.8,0,19.49,0.88,26.07,2.65c6.58,1.77,12.52,4.03,17.82,6.77l-9.13,31.22c-4.52-2.16-8.98-3.83-13.4-5.01
			c-4.42-1.18-9.48-1.77-15.17-1.77c-10.6,0-18.66,3.49-24.15,10.46c-5.5,6.97-8.25,18.12-8.25,33.43c0,6.29,0.69,12.08,2.06,17.38
			c1.37,5.3,3.43,9.92,6.19,13.84c2.75,3.93,6.33,7.02,10.75,9.28c4.42,2.26,9.57,3.39,15.46,3.39c6.48,0,11.98-0.83,16.5-2.5
			c4.51-1.67,8.54-3.68,12.08-6.04L1376.19,530.73z"/>
		<path class="st6" d="M1397.11,351.05c0-5.69,2.11-10.55,6.33-14.58c4.22-4.02,10.06-6.04,17.53-6.04c7.46,0,13.5,2.02,18.12,6.04
			c4.61,4.03,6.92,8.89,6.92,14.58c0,5.7-2.31,10.46-6.92,14.29c-4.62,3.83-10.66,5.74-18.12,5.74c-7.47,0-13.31-1.91-17.53-5.74
			C1399.21,361.51,1397.11,356.75,1397.11,351.05z M1402.7,392.58H1441v147.28h-38.29V392.58z"/>
		<path class="st6" d="M1477.82,401.12c7.85-3.53,17.18-6.33,27.98-8.4c10.8-2.06,22.09-3.09,33.88-3.09
			c10.21,0,18.75,1.23,25.63,3.68c6.87,2.46,12.32,5.94,16.35,10.46c4.02,4.52,6.87,9.92,8.54,16.2c1.67,6.29,2.5,13.36,2.5,21.21
			c0,8.64-0.29,17.33-0.88,26.07c-0.59,8.74-0.93,17.33-1.03,25.78c-0.1,8.45,0.15,16.64,0.74,24.6c0.59,7.95,2.06,15.46,4.42,22.53
			h-31.22l-6.19-20.33h-1.47c-3.93,6.09-9.38,11.34-16.35,15.76c-6.97,4.42-15.96,6.63-26.95,6.63c-6.88,0-13.06-1.03-18.56-3.09
			c-5.5-2.06-10.21-5.01-14.14-8.84c-3.93-3.83-6.97-8.34-9.13-13.55c-2.16-5.2-3.24-11.05-3.24-17.53c0-9.03,2.01-16.64,6.04-22.83
			c4.02-6.19,9.82-11.19,17.38-15.02c7.56-3.83,16.59-6.48,27.1-7.95c10.5-1.47,22.24-1.92,35.2-1.33c1.37-11,0.59-18.9-2.36-23.71
			c-2.95-4.81-9.53-7.22-19.74-7.22c-7.66,0-15.76,0.79-24.3,2.36c-8.54,1.57-15.57,3.64-21.06,6.19L1477.82,401.12z M1526.42,510.7
			c7.66,0,13.74-1.72,18.26-5.16c4.52-3.43,7.85-7.12,10.02-11.05v-19.15c-6.09-0.59-11.93-0.69-17.53-0.29
			c-5.6,0.4-10.56,1.28-14.88,2.65c-4.32,1.38-7.76,3.34-10.31,5.89c-2.55,2.55-3.83,5.79-3.83,9.72c0,5.5,1.62,9.77,4.86,12.81
			C1516.26,509.18,1520.72,510.7,1526.42,510.7z"/>
	</g>
	<g>
		<path class="st17" d="M837.9,643.69v36.32h-5.45v-21.02l0.44-10.02h-0.06l-11.06,31.04h-4.9l-11.06-31.04h-0.05l0.44,10.02v21.02
			h-5.45v-36.32h8.75l7.32,21.02l2.53,8.64h0.11l2.59-8.64l7.26-21.02H837.9z"/>
		<path class="st17" d="M894.14,643.69v22.4c0,4.81-1.27,8.42-3.8,10.84c-2.53,2.42-6.22,3.63-11.06,3.63
			c-4.77,0-8.43-1.21-10.98-3.63c-2.55-2.42-3.82-6.03-3.82-10.84v-22.4h5.89v21.68c0,3.41,0.73,5.94,2.2,7.59
			c1.47,1.65,3.7,2.48,6.71,2.48c3.04,0,5.3-0.83,6.77-2.48c1.47-1.65,2.2-4.18,2.2-7.59v-21.68H894.14z"/>
		<path class="st17" d="M950.49,643.69v36.32h-6.99l-14.03-22.89l-3.52-6.44h-0.06l0.22,5.89v23.44h-5.39v-36.32h6.93l13.98,22.84
			l3.58,6.55h0.05l-0.22-5.94v-23.44H950.49z"/>
		<path class="st17" d="M983.62,643.69v36.32h-5.89v-36.32H983.62z"/>
		<path class="st17" d="M1041.01,670.38c-0.73,2.2-1.83,4.06-3.3,5.58c-1.47,1.52-3.19,2.67-5.17,3.44
			c-1.98,0.77-4.16,1.16-6.55,1.16c-3.49,0-6.51-0.75-9.08-2.26c-2.57-1.5-4.55-3.65-5.94-6.44c-1.4-2.79-2.09-6.13-2.09-10.01
			c0-3.89,0.7-7.23,2.09-10.01c1.39-2.79,3.37-4.93,5.94-6.44c2.57-1.5,5.58-2.26,9.02-2.26c2.38,0,4.54,0.33,6.47,0.99
			c1.93,0.66,3.57,1.65,4.93,2.97c1.36,1.32,2.4,2.97,3.14,4.95l-5.56,2.48c-0.73-2.17-1.8-3.75-3.19-4.76
			c-1.39-1.01-3.21-1.51-5.45-1.51s-4.2,0.53-5.89,1.6c-1.69,1.06-3,2.61-3.93,4.62c-0.94,2.02-1.4,4.48-1.4,7.37
			c0,2.86,0.44,5.31,1.32,7.35c0.88,2.04,2.15,3.59,3.8,4.65c1.65,1.06,3.63,1.6,5.94,1.6c2.24,0,4.17-0.58,5.81-1.73
			c1.63-1.16,2.8-2.89,3.49-5.2L1041.01,670.38z"/>
		<path class="st17" d="M1070.94,643.69v36.32h-5.89v-36.32H1070.94z"/>
		<path class="st17" d="M1112.22,643.69c2.6,0,4.85,0.46,6.74,1.38s3.37,2.22,4.43,3.91c1.06,1.69,1.6,3.72,1.6,6.11
			c0,2.35-0.53,4.38-1.6,6.08c-1.06,1.71-2.54,3.02-4.43,3.93s-4.14,1.38-6.74,1.38h-8.09v13.54h-5.89v-36.32H1112.22z
			 M1111.28,661.41c2.6,0,4.52-0.54,5.75-1.62c1.23-1.08,1.84-2.65,1.84-4.71c0-2.09-0.62-3.68-1.84-4.76
			c-1.23-1.08-3.15-1.62-5.75-1.62h-7.15v12.71H1111.28z"/>
		<path class="st17" d="M1176.43,680.01h-6.22l-3.47-9.52h-15.24l-3.47,9.52h-6.05l13.7-36.32h7.04L1176.43,680.01z M1153.16,665.7
			h11.94l-5.94-16.95L1153.16,665.7z"/>
		<path class="st17" d="M1205.27,674.95h20.03v5.06h-25.92v-36.32h5.89V674.95z"/>
		<path class="st17" d="M1254.74,643.69v36.32h-5.89v-36.32H1254.74z"/>
		<path class="st17" d="M1294.85,643.69c5.69,0,10.12,1.57,13.29,4.71c3.17,3.14,4.76,7.62,4.76,13.45s-1.59,10.32-4.76,13.45
			c-3.17,3.14-7.6,4.71-13.29,4.71h-12.82v-36.32H1294.85z M1294.85,675c3.85,0,6.8-1.15,8.83-3.44c2.04-2.29,3.05-5.53,3.05-9.71
			c0-4.18-1.02-7.42-3.05-9.71c-2.04-2.29-4.98-3.44-8.83-3.44h-6.93V675H1294.85z"/>
		<path class="st17" d="M1367.05,680.01h-6.22l-3.47-9.52h-15.24l-3.47,9.52h-6.05l13.7-36.32h7.04L1367.05,680.01z M1343.77,665.7
			h11.94l-5.94-16.95L1343.77,665.7z"/>
		<path class="st17" d="M1402.82,643.69c5.69,0,10.12,1.57,13.29,4.71c3.17,3.14,4.76,7.62,4.76,13.45s-1.59,10.32-4.76,13.45
			c-3.17,3.14-7.6,4.71-13.29,4.71H1390v-36.32H1402.82z M1402.82,675c3.85,0,6.8-1.15,8.83-3.44c2.04-2.29,3.05-5.53,3.05-9.71
			c0-4.18-1.02-7.42-3.05-9.71c-2.04-2.29-4.98-3.44-8.83-3.44h-6.93V675H1402.82z"/>
		<path class="st17" d="M1493.34,643.69c5.69,0,10.12,1.57,13.29,4.71c3.17,3.14,4.76,7.62,4.76,13.45s-1.59,10.32-4.76,13.45
			c-3.17,3.14-7.6,4.71-13.29,4.71h-12.82v-36.32H1493.34z M1493.34,675c3.85,0,6.8-1.15,8.83-3.44c2.04-2.29,3.05-5.53,3.05-9.71
			c0-4.18-1.02-7.42-3.05-9.71c-2.04-2.29-4.98-3.44-8.83-3.44h-6.93V675H1493.34z"/>
		<path class="st17" d="M1542.53,643.69v36.32h-5.89v-36.32H1542.53z"/>
		<path class="st17" d="M1582.21,643.14c3.26,0,6.09,0.62,8.47,1.84c2.38,1.23,4.4,3.04,6.05,5.42l-3.96,3.8
			c-1.4-2.13-2.96-3.66-4.71-4.59c-1.74-0.94-3.81-1.4-6.19-1.4c-1.76,0-3.21,0.24-4.35,0.72c-1.14,0.48-1.97,1.11-2.5,1.9
			c-0.53,0.79-0.8,1.68-0.8,2.67c0,1.14,0.39,2.13,1.18,2.97c0.79,0.84,2.26,1.5,4.43,1.98l7.37,1.65c3.52,0.77,6.02,1.94,7.48,3.52
			c1.47,1.58,2.2,3.58,2.2,6c0,2.24-0.61,4.18-1.82,5.83c-1.21,1.65-2.89,2.92-5.04,3.8c-2.15,0.88-4.67,1.32-7.57,1.32
			c-2.57,0-4.88-0.33-6.93-0.99s-3.85-1.56-5.39-2.7c-1.54-1.14-2.81-2.44-3.8-3.91l4.07-4.07c0.77,1.28,1.74,2.43,2.92,3.44
			c1.17,1.01,2.54,1.79,4.1,2.34c1.56,0.55,3.29,0.83,5.2,0.83c1.69,0,3.15-0.2,4.38-0.6c1.23-0.4,2.16-1,2.81-1.79
			c0.64-0.79,0.96-1.73,0.96-2.83c0-1.06-0.36-2-1.07-2.81c-0.71-0.81-2.04-1.43-3.99-1.87l-7.98-1.82
			c-2.2-0.48-4.02-1.16-5.45-2.04c-1.43-0.88-2.5-1.95-3.19-3.22c-0.7-1.27-1.05-2.69-1.05-4.26c0-2.05,0.56-3.92,1.68-5.59
			c1.12-1.67,2.74-3.01,4.87-4.02C1576.74,643.64,1579.27,643.14,1582.21,643.14z"/>
		<path class="st17" d="M1647.3,643.69v5.06h-12.44v31.26h-5.89v-31.26h-12.44v-5.06H1647.3z"/>
		<path class="st17" d="M1685.66,643.69c3.89,0,6.98,0.97,9.27,2.92c2.29,1.95,3.44,4.57,3.44,7.87c0,3.41-1.15,6.04-3.44,7.9
			c-2.29,1.85-5.38,2.78-9.27,2.78l-0.55,0.33h-8.42v14.53h-5.83v-36.32H1685.66z M1685.22,660.58c2.38,0,4.15-0.49,5.31-1.46
			c1.16-0.97,1.73-2.47,1.73-4.49c0-1.98-0.58-3.47-1.73-4.46c-1.16-0.99-2.93-1.49-5.31-1.49h-8.53v11.89H1685.22z M1688.68,661.79
			l11.83,18.21h-6.77l-10.13-15.9L1688.68,661.79z"/>
		<path class="st17" d="M1730.23,643.69v36.32h-5.89v-36.32H1730.23z"/>
		<path class="st17" d="M1784.54,643.69v5.06h-12.44v31.26h-5.89v-31.26h-12.44v-5.06H1784.54z"/>
		<path class="st17" d="M1833.41,680.01h-6.22l-3.47-9.52h-15.24l-3.47,9.52h-6.05l13.7-36.32h7.04L1833.41,680.01z M1810.13,665.7
			h11.94l-5.94-16.95L1810.13,665.7z"/>
		<path class="st17" d="M1862.24,674.95h20.03v5.06h-25.92v-36.32h5.89V674.95z"/>
	</g>
</g>
</svg>
